<svg xmlns:xlink="http://www.w3.org/1999/xlink" xmlns="http://www.w3.org/2000/svg" fill="none" viewBox="0 0 14 14" width="24" height="24" role="img"><path class="ic-a-careers_svg__ic_a_careers" fill="#FBDC00" d="M11.828 4.393H2.172v6.156h9.656V4.393Z"></path><path class="ic-a-careers_svg__ic_a_careers" fill="#000" d="M11.828 10.665H2.171a.115.115 0 0 1-.108-.072.117.117 0 0 1-.008-.044V4.393a.116.116 0 0 1 .116-.117h9.655a.116.116 0 0 1 .117.117v6.156a.116.116 0 0 1-.117.116Zm-9.54-.232h9.423V4.508H2.29l-.001 5.923Z"></path><path class="ic-a-careers_svg__ic_a_careers" fill="#FBDC00" d="M4.868 4.39h1.059l.007-.79h2.109v.79h1.089V2.733H4.868V4.39Z"></path><path class="ic-a-careers_svg__ic_a_careers" fill="#000" d="M9.132 4.508H8.043a.116.116 0 0 1-.116-.115v-.675H6.049l-.006.676a.116.116 0 0 1-.117.115H4.867a.116.116 0 0 1-.115-.116V2.734a.116.116 0 0 1 .115-.116h4.265a.116.116 0 0 1 .116.116v1.659a.116.116 0 0 1-.116.115Zm-.973-.232h.856V2.85H4.984v1.426h.827l.006-.675a.116.116 0 0 1 .117-.116h2.109a.116.116 0 0 1 .116.116v.675Zm3.669 2.538H2.17a.116.116 0 0 1 0-.232h9.657a.116.116 0 1 1 0 .232Z"></path><path class="ic-a-careers_svg__ic_a_careers" fill="#FFFFFF" d="M8.1 6.699H5.899v.921h2.203V6.7Z"></path><path class="ic-a-careers_svg__ic_a_careers" fill="#000" d="M8.101 7.737H5.898a.116.116 0 0 1-.115-.116v-.922a.116.116 0 0 1 .115-.117h2.203a.117.117 0 0 1 .117.117v.922a.116.116 0 0 1-.117.116Zm-2.086-.232h1.97v-.69h-1.97v.69Z"></path></svg>