<svg xmlns:xlink="http://www.w3.org/1999/xlink" xmlns="http://www.w3.org/2000/svg" fill="none" viewBox="0 0 14 14" width="28" height="28" role="img"><path class="ic-a-customer_centre_svg__ic_a_customercentre" fill="#FDDE01" d="M12.083 9.51h-.43a.406.406 0 0 1-.405-.405V7.059c0-.223.182-.405.405-.405h.43c.223 0 .405.182.405.405v2.046a.405.405 0 0 1-.405.404ZM9.106 4.239H4.892c-.34 0-.62.279-.62.62v3.007c0 .34.28.62.62.62h.721l-.181.466a.622.622 0 0 0 .354.802.622.622 0 0 0 .802-.354l.354-.914h2.165c.341 0 .62-.28.62-.62V4.858c0-.34-.279-.62-.62-.62ZM2.335 9.51h-.43a.406.406 0 0 1-.405-.405V7.058c0-.223.182-.405.405-.405h.43c.223 0 .405.182.405.405v2.047a.406.406 0 0 1-.405.404Zm5.371 1.783h1.146a.41.41 0 0 1 .41.41v.477a.41.41 0 0 1-.41.409H7.706a.41.41 0 0 1-.41-.41v-.476a.41.41 0 0 1 .41-.41Z"></path><path class="ic-a-customer_centre_svg__ic_a_customercentre" fill="#000" d="M11.672 6.107c-.12-2.402-2.174-4.36-4.58-4.39-2.592-.032-4.626 1.984-4.765 4.39l.121.035a.78.78 0 0 1 .587.69c.014.195.01.39.01.585 0 .57.003 1.139-.002 1.709-.003.493-.336.85-.797.846-.492-.004-.86-.233-1.099-.66a1.17 1.17 0 0 1-.145-.583c0-.458-.005-.917 0-1.375.007-.487.23-.851.65-1.092.062-.035.09-.07.094-.145a5.167 5.167 0 0 1 1.27-3.148c.703-.815 1.575-1.38 2.618-1.643C7.4.88 9.005 1.229 10.408 2.399c.955.795 1.536 1.823 1.768 3.043.043.222.058.45.079.675.006.066.018.105.08.14.438.245.66.62.663 1.122.002.446.003.892 0 1.338-.005.491-.224.862-.65 1.105-.067.038-.083.08-.085.15-.006.298.011.6-.034.892-.12.786-.85 1.401-1.648 1.417a26.5 26.5 0 0 1-.836 0c-.06-.001-.09.018-.117.073-.162.33-.428.504-.799.505-.306.002-.614.005-.92-.002-.449-.01-.805-.378-.828-.843-.021-.422.31-.838.737-.872a8.4 8.4 0 0 1 1.133-.005c.315.017.534.205.677.484.019.035.062.082.094.082.314.001.63.01.943-.015.56-.045 1.012-.546 1.02-1.108.004-.199.002-.398.002-.602-.06-.015-.117-.027-.173-.044a.788.788 0 0 1-.554-.768c-.007-.748-.008-1.497 0-2.246.005-.427.223-.664.712-.813ZM2.462 8.04V6.93c-.002-.158-.09-.242-.246-.241a.654.654 0 0 0-.636.649c-.01.47-.01.94 0 1.41.008.348.28.628.6.645.193.01.281-.071.282-.264V8.041Zm9.077 0v1.112c.004.16.089.241.246.24.344-.001.63-.288.637-.66a38.33 38.33 0 0 0 0-1.385.661.661 0 0 0-.554-.654c-.214-.039-.328.056-.328.272-.002.36-.001.718-.001 1.076Zm-3.14 3.662c-.147 0-.294-.002-.441.001-.175.004-.291.117-.294.28a.284.284 0 0 0 .29.299c.295.004.59.003.885 0a.285.285 0 0 0 .293-.295c-.002-.164-.118-.28-.29-.284-.148-.003-.295 0-.443 0Z"></path><path class="ic-a-customer_centre_svg__ic_a_customercentre" fill="#000" d="M5.162 8.847c-.582-.047-.988-.312-1.174-.86a1.363 1.363 0 0 1-.063-.422c-.006-.79-.004-1.578-.002-2.367.002-.749.53-1.274 1.282-1.274h3.598c.744.001 1.273.526 1.275 1.269.003.792.003 1.585 0 2.378-.002.742-.532 1.267-1.276 1.268-.478 0-.956.002-1.434-.002a.265.265 0 0 0-.208.087c-.325.328-.65.657-.983.976a.584.584 0 0 1-.945-.155.798.798 0 0 1-.067-.299c-.01-.197-.003-.395-.003-.6Zm.586.662c.05-.047.082-.075.11-.105.332-.329.665-.654.991-.987a.485.485 0 0 1 .38-.159c.53.007 1.06.006 1.59.001.412-.002.674-.263.676-.671.002-.805.002-1.61 0-2.414-.002-.411-.264-.666-.677-.667H7.694c-.844 0-1.69-.002-2.533.001-.364.001-.646.25-.65.594a145.74 145.74 0 0 0 0 2.558c.003.304.24.552.542.587.123.014.247.01.37.013.212.007.314.107.317.319.003.263 0 .526 0 .789 0 .038.004.075.008.141Z"></path><path class="ic-a-customer_centre_svg__ic_a_customercentre" fill="#000" d="M6.995 6.854a.435.435 0 0 1-.421-.431A.435.435 0 0 1 7.005 6c.23.004.425.203.422.432a.435.435 0 0 1-.432.421Zm-1.811-.436A.425.425 0 0 1 5.617 6a.432.432 0 0 1 .416.436.434.434 0 0 1-.436.417.425.425 0 0 1-.413-.435Zm3.633.01a.426.426 0 0 1-.424.426.433.433 0 0 1-.425-.428A.434.434 0 0 1 8.395 6a.427.427 0 0 1 .422.428Z"></path></svg>