<svg xmlns:xlink="http://www.w3.org/1999/xlink" xmlns="http://www.w3.org/2000/svg" fill="none" viewBox="0 0 14 14" width="24" height="24" role="img"><path class="ic-a-end_to_end_visibility_svg__ic_a_end_to_end_visibility" fill="#FBDC00" d="M12.707 6.869A3.12 3.12 0 0 0 10.622 4.8s.846 3.232.674 4.454"></path><path class="ic-a-end_to_end_visibility_svg__ic_a_end_to_end_visibility" fill="#231F20" d="M11.296 9.382h-.017a.126.126 0 0 1-.108-.143c.166-1.183-.663-4.37-.67-4.405a.125.125 0 0 1 .033-.122.126.126 0 0 1 .123-.03 3.219 3.219 0 0 1 2.171 2.157.126.126 0 0 1-.244.063 3.035 3.035 0 0 0-1.783-1.907c.19.761.768 3.221.62 4.28a.126.126 0 0 1-.125.107Z"></path><path class="ic-a-end_to_end_visibility_svg__ic_a_end_to_end_visibility" fill="#FFFFFF" d="M6.309 12.747a5.144 5.144 0 1 0 0-10.288 5.144 5.144 0 0 0 0 10.288Z"></path><path class="ic-a-end_to_end_visibility_svg__ic_a_end_to_end_visibility" fill="#231F20" d="M6.309 2.294A5.309 5.309 0 1 1 1 7.604a5.315 5.315 0 0 1 5.309-5.31Zm0 10.288a4.98 4.98 0 1 0-4.98-4.979 4.983 4.983 0 0 0 4.98 4.978v.001Z"></path><path class="ic-a-end_to_end_visibility_svg__ic_a_end_to_end_visibility" fill="#231F20" d="M6.309 12.912a.165.165 0 0 1-.165-.165V6.995a.165.165 0 0 1 .33 0v5.75a.165.165 0 0 1-.165.167Zm0-7.635a.165.165 0 0 1-.165-.164V2.46a.165.165 0 0 1 .33 0v2.653a.165.165 0 0 1-.165.164Zm-1.867 7.295a.164.164 0 0 1-.132-.066c-.048-.064-1.197-1.617-1.197-4.903 0-3.286 1.149-4.838 1.197-4.903a.165.165 0 0 1 .263.199c-.012.015-1.131 1.541-1.131 4.704s1.12 4.69 1.13 4.704a.165.165 0 0 1-.13.263v.002Zm3.748-.001a.165.165 0 0 1-.163-.179.165.165 0 0 1 .031-.083c.011-.015 1.131-1.541 1.131-4.705 0-3.174-1.12-4.689-1.13-4.703a.165.165 0 1 1 .262-.2c.049.065 1.197 1.617 1.197 4.903 0 3.286-1.148 4.839-1.197 4.904a.163.163 0 0 1-.132.063Z"></path><path class="ic-a-end_to_end_visibility_svg__ic_a_end_to_end_visibility" fill="#231F20" d="M11.459 7.761H1.17a.165.165 0 0 1 0-.33h10.29a.165.165 0 0 1 0 .33ZM1.512 5.894a.165.165 0 0 1-.1-.296C1.478 5.548 3.03 4.4 6.317 4.4c3.286 0 4.838 1.149 4.903 1.198a.164.164 0 0 1-.08.288.165.165 0 0 1-.12-.026c-.015-.01-1.54-1.13-4.704-1.13-3.175 0-4.689 1.12-4.704 1.13a.164.164 0 0 1-.099.035Zm4.803 4.912c-3.284 0-4.838-1.149-4.903-1.198a.165.165 0 0 1 .199-.262c.015.011 1.541 1.13 4.704 1.13s4.69-1.119 4.705-1.13a.165.165 0 0 1 .199.262c-.065.049-1.619 1.198-4.904 1.198Z"></path><path class="ic-a-end_to_end_visibility_svg__ic_a_end_to_end_visibility" fill="#FBDC00" d="M4.692 10.595a9.427 9.427 0 0 0 7.606 1.143 8.143 8.143 0 0 1-1.406-.56c1.91-.925 2.185-2.99 1.812-4.308-.556 1.963-1.88 2.447-3.738 2.9a6.633 6.633 0 0 1-.731-.89 8.772 8.772 0 0 1-3.543 1.715Z"></path><path class="ic-a-end_to_end_visibility_svg__ic_a_end_to_end_visibility" fill="#231F20" d="M9.79 12.21a9.68 9.68 0 0 1-5.164-1.51.126.126 0 0 1 .038-.229 8.698 8.698 0 0 0 3.494-1.69.126.126 0 0 1 .184.026c.2.292.423.567.667.822 1.757-.433 3.04-.905 3.576-2.795a.126.126 0 0 1 .198-.066c.022.017.038.04.045.066a3.748 3.748 0 0 1-1.655 4.34c.376.177.765.325 1.163.442a.126.126 0 0 1 0 .243 9.31 9.31 0 0 1-2.546.351Zm-4.775-1.567a9.407 9.407 0 0 0 4.775 1.315c.693 0 1.383-.079 2.058-.235a8.172 8.172 0 0 1-1.011-.434.126.126 0 0 1 .002-.226 3.425 3.425 0 0 0 1.843-3.72C12.029 9.02 10.677 9.48 8.999 9.89a.126.126 0 0 1-.12-.034 6.809 6.809 0 0 1-.667-.797 8.933 8.933 0 0 1-3.197 1.584Z"></path><path class="ic-a-end_to_end_visibility_svg__ic_a_end_to_end_visibility" fill="#FBDC00" d="M3.277 8.399a.674.674 0 1 0 0-1.347.674.674 0 0 0 0 1.347Z"></path><path class="ic-a-end_to_end_visibility_svg__ic_a_end_to_end_visibility" fill="#231F20" d="M3.277 6.926a.8.8 0 1 1-.002 1.601.8.8 0 0 1 .002-1.601Zm0 1.347a.548.548 0 1 0-.002-1.096.548.548 0 0 0 .002 1.096Z"></path><path class="ic-a-end_to_end_visibility_svg__ic_a_end_to_end_visibility" fill="#FBDC00" d="M10.392 2.707c-.044.88-1.311 2.56-1.311 2.56S7.82 3.63 7.77 2.706a1.376 1.376 0 0 1 1.31-1.493 1.339 1.339 0 0 1 1.312 1.493Z"></path><path class="ic-a-end_to_end_visibility_svg__ic_a_end_to_end_visibility" fill="#231F20" d="M9.082 1.088a1.399 1.399 0 0 1 1.025.437 1.583 1.583 0 0 1 .411 1.187c-.043.909-1.282 2.56-1.335 2.63a.126.126 0 0 1-.2 0c-.053-.069-1.285-1.678-1.336-2.63a1.57 1.57 0 0 1 .424-1.178 1.407 1.407 0 0 1 1.011-.446Zm0 3.965c.297-.413 1.15-1.66 1.185-2.353a1.332 1.332 0 0 0-.342-1 1.136 1.136 0 0 0-1.669.01 1.32 1.32 0 0 0-.356.99c.04.724.885 1.945 1.182 2.353Z"></path><path class="ic-a-end_to_end_visibility_svg__ic_a_end_to_end_visibility" fill="#FFFFFF" d="M9.083 3.24a.694.694 0 1 0 0-1.388.694.694 0 0 0 0 1.388Z"></path><path class="ic-a-end_to_end_visibility_svg__ic_a_end_to_end_visibility" fill="#231F20" d="M9.083 1.732a.81.81 0 0 1 .75.498.809.809 0 0 1 0 .633.811.811 0 0 1-.75.498.81.81 0 0 1-.75-.498.809.809 0 0 1 0-.634.811.811 0 0 1 .75-.497Zm0 1.388a.568.568 0 0 0 .53-.354.568.568 0 0 0 0-.44.568.568 0 0 0-.311-.31.568.568 0 0 0-.44 0 .568.568 0 0 0-.311.31.568.568 0 0 0 0 .44.568.568 0 0 0 .311.311c.07.029.145.043.22.043Z"></path><path class="ic-a-end_to_end_visibility_svg__ic_a_end_to_end_visibility" fill="#FFFFFF" d="M9.082 5.266s-2.459 0-5.13 2.022l5.13-2.022Z"></path><path class="ic-a-end_to_end_visibility_svg__ic_a_end_to_end_visibility" fill="#231F20" d="M3.951 7.433a.145.145 0 0 1-.087-.263l.155-.115a.145.145 0 0 1 .17.234l-.15.113a.145.145 0 0 1-.088.03Zm.71-.495a.144.144 0 0 1-.078-.267c.199-.127.395-.244.588-.35a.145.145 0 0 1 .14.253c-.187.105-.378.219-.571.342a.145.145 0 0 1-.078.022Zm1.18-.656a.145.145 0 0 1-.062-.276c.216-.102.426-.193.629-.273a.145.145 0 0 1 .106.27c-.197.077-.4.165-.612.265a.144.144 0 0 1-.06.014Zm1.256-.496a.145.145 0 0 1-.043-.283c.236-.075.457-.135.66-.183a.145.145 0 0 1 .068.282 9.08 9.08 0 0 0-.64.178.145.145 0 0 1-.044.007Zm1.311-.311a.145.145 0 0 1-.021-.288c.23-.038.46-.06.693-.066a.145.145 0 1 1 0 .29 4.94 4.94 0 0 0-.67.065l-.002-.001Z"></path></svg>