<svg xmlns:xlink="http://www.w3.org/1999/xlink" xmlns="http://www.w3.org/2000/svg" fill="none" viewBox="0 0 14 14" width="24" height="24" role="img"><path class="ic-a-freight_forwarders_svg__ic_a_freight_forwarders" fill="#FBDC00" d="m4.393 3.087 6.858 1.168v4.96H4.393V3.087Z"></path><path class="ic-a-freight_forwarders_svg__ic_a_freight_forwarders" fill="#231F20" d="M11.251 9.35H4.393a.134.134 0 0 1-.134-.134V3.087a.135.135 0 0 1 .157-.132l6.858 1.167a.135.135 0 0 1 .112.132v4.96a.133.133 0 0 1-.083.126.134.134 0 0 1-.052.01Zm-6.724-.269h6.59V4.368l-6.59-1.122v5.835Z"></path><path class="ic-a-freight_forwarders_svg__ic_a_freight_forwarders" fill="#FBDC00" d="m1.135 4.011 3.258-.924v6.129H1.135V4.01Z"></path><path class="ic-a-freight_forwarders_svg__ic_a_freight_forwarders" fill="#231F20" d="M4.393 9.35H1.134A.134.134 0 0 1 1 9.216V4.01a.134.134 0 0 1 .098-.129l3.258-.924a.134.134 0 0 1 .172.13v6.128a.134.134 0 0 1-.135.134ZM1.27 9.08h2.99V3.265l-2.99.847v4.97Zm8.829-.591a.134.134 0 0 1-.134-.134V5.083a.134.134 0 1 1 .268 0v3.271a.134.134 0 0 1-.134.135Zm-1.117 0a.134.134 0 0 1-.135-.135V4.92a.134.134 0 1 1 .269 0v3.435a.134.134 0 0 1-.134.135Zm-1.118 0a.134.134 0 0 1-.134-.135V4.701a.134.134 0 1 1 .269 0v3.653a.134.134 0 0 1-.135.135Zm-1.117 0a.134.134 0 0 1-.135-.135V4.51a.134.134 0 1 1 .269 0v3.845a.134.134 0 0 1-.134.134Zm-1.117 0a.134.134 0 0 1-.135-.135V4.291a.134.134 0 1 1 .269 0v4.063a.134.134 0 0 1-.135.135Z"></path><path class="ic-a-freight_forwarders_svg__ic_a_freight_forwarders" fill="#231F20" d="M2.671 8.217a.134.134 0 0 1-.134-.135V4.693a.134.134 0 1 1 .268 0v3.39a.134.134 0 0 1-.134.134Z"></path><path class="ic-a-freight_forwarders_svg__ic_a_freight_forwarders" fill="#FFFFFF" d="M12.866 9.02 10.67 7.125v1.237H6.747v1.313h3.923v1.237l2.196-1.894Z"></path><path class="ic-a-freight_forwarders_svg__ic_a_freight_forwarders" fill="#231F20" d="M10.67 11.047a.136.136 0 0 1-.135-.134V9.81H6.747a.134.134 0 0 1-.135-.134V8.363a.134.134 0 0 1 .135-.135h3.788V7.126a.134.134 0 0 1 .222-.102l2.197 1.893a.134.134 0 0 1 0 .204l-2.197 1.893a.135.135 0 0 1-.088.033ZM6.88 9.541h3.788a.134.134 0 0 1 .135.135v.943l1.856-1.6-1.856-1.6v.944a.134.134 0 0 1-.135.134H6.881v1.044Z"></path></svg>