<svg xmlns:xlink="http://www.w3.org/1999/xlink" xmlns="http://www.w3.org/2000/svg" fill="none" viewBox="0 0 14 14" width="24" height="24" role="img"><path class="ic-a-about_us_svg__ic_a_about_us" fill="#FBDC00" d="M9.895 2.935a.596.596 0 0 0-.825.076c-.14.17-.25.362-.325.569a2.856 2.856 0 1 0 .455.525c.225-.079.434-.195.62-.345a.596.596 0 0 0 .075-.825ZM6.909 7.423a1.728 1.728 0 1 1-.166-3.452 1.728 1.728 0 0 1 .166 3.452Z"></path><path class="ic-a-about_us_svg__ic_a_about_us" fill="#231F20" d="M9.559 2.799a.463.463 0 0 1 .336.136.595.595 0 0 1-.076.826c-.185.15-.395.266-.62.345a2.856 2.856 0 1 1-4.462-.355 2.858 2.858 0 0 1 2.091-.913 2.85 2.85 0 0 1 1.917.742c.075-.207.185-.399.324-.569a.722.722 0 0 1 .49-.212ZM6.825 7.425h.084a1.728 1.728 0 0 0-.082-3.455h-.083a1.728 1.728 0 0 0 .081 3.455ZM9.56 2.54a.977.977 0 0 0-.673.288 1.426 1.426 0 0 0-.236.342 3.105 3.105 0 0 0-4.099.406A3.117 3.117 0 0 0 6.98 8.809a3.116 3.116 0 0 0 2.596-4.585 1.61 1.61 0 0 0 .43-.28 1.01 1.01 0 0 0 .278-.545.734.734 0 0 0-.438-.81.718.718 0 0 0-.281-.052l-.005.002ZM6.825 7.166a1.47 1.47 0 0 1-.069-2.938h.071a1.47 1.47 0 0 1 .07 2.937h-.072Z"></path><path class="ic-a-about_us_svg__ic_a_about_us" fill="#FBDC00" d="M9.439 9.222c-.112-.136-.29-.063-.406.028a5.641 5.641 0 0 1-.482.343 3.056 3.056 0 0 1-1.091.435c-.42.063-.846.063-1.266 0a3.056 3.056 0 0 1-1.091-.435 5.622 5.622 0 0 1-.482-.343c-.117-.091-.294-.164-.406-.028a.826.826 0 0 0 .08.918c.232.31.541.554.896.71l.02.01a3.995 3.995 0 0 0 3.232 0l.02-.01c.355-.156.663-.4.896-.71a.826.826 0 0 0 .08-.918Z"></path><path class="ic-a-about_us_svg__ic_a_about_us" fill="#231F20" d="M9.282 9.147a.196.196 0 0 1 .157.075.827.827 0 0 1-.08.918 2.25 2.25 0 0 1-.897.71l-.02.01a3.994 3.994 0 0 1-3.232 0l-.02-.01a2.247 2.247 0 0 1-.896-.71.826.826 0 0 1-.08-.918.196.196 0 0 1 .157-.075c.092.007.18.043.25.103.154.123.315.238.482.344.332.214.703.361 1.091.434.42.063.846.063 1.266 0 .388-.073.759-.22 1.091-.434.166-.106.327-.221.482-.344a.437.437 0 0 1 .25-.103m0-.259a.7.7 0 0 0-.409.158 5.44 5.44 0 0 1-.459.328 2.796 2.796 0 0 1-1 .4 3.99 3.99 0 0 1-1.179 0 2.797 2.797 0 0 1-1-.4 5.434 5.434 0 0 1-.459-.328.7.7 0 0 0-.408-.158.456.456 0 0 0-.357.168 1.065 1.065 0 0 0 .06 1.223c.257.349.6.625.997.8l.015.007.008.004a4.25 4.25 0 0 0 3.464 0l.007-.004.016-.008c.396-.174.74-.45.996-.8a1.065 1.065 0 0 0 .06-1.222.456.456 0 0 0-.356-.168h.004Z"></path></svg>