<svg xmlns:xlink="http://www.w3.org/1999/xlink" xmlns="http://www.w3.org/2000/svg" fill="none" viewBox="0 0 14 14" width="24" height="24" role="img"><path class="ic-a-overseas_agents_svg__ic_a_overseas_agents" fill="#FBDC00" d="M11.841 2.192H6.085v7.959h5.756v-7.96Z"></path><path class="ic-a-overseas_agents_svg__ic_a_overseas_agents" fill="#000" d="M11.841 10.264H6.085a.114.114 0 0 1-.113-.113v-7.96a.114.114 0 0 1 .113-.114h5.756a.114.114 0 0 1 .114.115v7.959a.114.114 0 0 1-.114.114ZM6.2 10.037h5.529V2.305h-5.53v7.732Z"></path><path class="ic-a-overseas_agents_svg__ic_a_overseas_agents" d="M9.124 3.834H6.828a.114.114 0 0 1 0-.228h2.296a.114.114 0 0 1 0 .228Zm0 .69H6.828a.114.114 0 0 1 0-.228h2.296a.114.114 0 0 1 0 .228ZM9.126 9.3h-.662a.114.114 0 0 1 0-.227h.662a.114.114 0 0 1 0 .227Zm0-.661h-1.89a.114.114 0 1 1 0-.227h1.89a.114.114 0 1 1 0 .227Zm.001-2.403h-1.15a.114.114 0 1 1 0-.227h1.148a.114.114 0 1 1 0 .227h.002Zm-.001.675H7.803a.114.114 0 0 1 0-.227h1.323a.114.114 0 0 1 0 .227Zm1.046 2.259a.114.114 0 0 1-.085-.038l-.494-.559a.114.114 0 1 1 .171-.15l.4.45.787-1.128a.113.113 0 0 1 .158-.028.114.114 0 0 1 .028.158l-.87 1.247a.114.114 0 0 1-.086.05l-.008-.002Zm0-2.392a.113.113 0 0 1-.085-.038l-.494-.559a.113.113 0 1 1 .171-.15l.4.45.787-1.128a.113.113 0 0 1 .158-.028.114.114 0 0 1 .028.158l-.87 1.246a.114.114 0 0 1-.086.05l-.008-.001Zm0-2.393a.114.114 0 0 1-.085-.038l-.494-.559a.113.113 0 1 1 .171-.15l.4.45.787-1.128a.113.113 0 0 1 .118-.046.113.113 0 0 1 .087.091.114.114 0 0 1-.019.085l-.87 1.247a.114.114 0 0 1-.086.05l-.008-.002Z" fill="#231F20"></path><path class="ic-a-overseas_agents_svg__ic_a_overseas_agents" fill="#FFFFFF" d="M2.248 9.162a1.865 1.865 0 0 0 1.245 1.236s-.504-1.931-.402-2.661"></path><path class="ic-a-overseas_agents_svg__ic_a_overseas_agents" fill="#231F20" d="M3.493 10.511a.112.112 0 0 1-.031-.004A1.963 1.963 0 0 1 2.138 9.19a.113.113 0 1 1 .22-.057 1.742 1.742 0 0 0 .973 1.087 9.575 9.575 0 0 1-.353-2.5.112.112 0 0 1 .129-.096.114.114 0 0 1 .096.128c-.1.7.395 2.598.4 2.616a.113.113 0 0 1-.11.143Z"></path><path class="ic-a-overseas_agents_svg__ic_a_overseas_agents" fill="#FFFFFF" d="M9.885 8.297A1.865 1.865 0 0 0 8.64 7.061s.505 1.931.403 2.662"></path><path class="ic-a-overseas_agents_svg__ic_a_overseas_agents" fill="#231F20" d="M9.043 9.838h-.016a.113.113 0 0 1-.097-.128c.1-.7-.395-2.6-.4-2.617a.113.113 0 0 1 .142-.138 1.964 1.964 0 0 1 1.324 1.316.114.114 0 0 1-.22.057 1.742 1.742 0 0 0-.974-1.086c.228.814.347 1.655.354 2.5a.113.113 0 0 1-.113.096Z"></path><path class="ic-a-overseas_agents_svg__ic_a_overseas_agents" fill="#FFFFFF" d="M6.063 11.809a3.074 3.074 0 1 0 0-6.147 3.074 3.074 0 0 0 0 6.147Z"></path><path class="ic-a-overseas_agents_svg__ic_a_overseas_agents" fill="#231F20" d="M6.063 11.922a3.187 3.187 0 1 1 0-6.373 3.187 3.187 0 0 1 0 6.373Zm0-6.146a2.96 2.96 0 1 0 0 5.919 2.96 2.96 0 0 0 0-5.919Z"></path><path class="ic-a-overseas_agents_svg__ic_a_overseas_agents" fill="#231F20" d="M6.064 11.922a.114.114 0 0 1-.114-.113V5.662a.114.114 0 0 1 .228 0v6.147a.114.114 0 0 1-.114.114Zm-1.116-.203a.114.114 0 0 1-.091-.045c-.03-.038-.719-.971-.719-2.938 0-1.968.69-2.9.719-2.939a.114.114 0 0 1 .182.137 4.96 4.96 0 0 0-.673 2.8c0 1.892.666 2.793.673 2.8a.113.113 0 0 1-.091.182v.003Zm2.238 0a.114.114 0 0 1-.09-.182 4.96 4.96 0 0 0 .672-2.8c0-1.893-.666-2.793-.673-2.8a.114.114 0 1 1 .182-.138c.029.038.718.971.718 2.939 0 1.967-.69 2.9-.718 2.938a.113.113 0 0 1-.091.043Z"></path><path class="ic-a-overseas_agents_svg__ic_a_overseas_agents" fill="#231F20" d="M9.14 8.845H2.993a.114.114 0 0 1 0-.227H9.14a.114.114 0 0 1 0 .227ZM8.937 7.73a.113.113 0 0 1-.069-.024 4.963 4.963 0 0 0-2.8-.672c-1.884 0-2.792.666-2.8.673a.114.114 0 0 1-.137-.182c.039-.03.971-.719 2.939-.719 1.967 0 2.9.69 2.938.719a.113.113 0 0 1-.069.205h-.002Zm-2.87 2.935c-1.968 0-2.9-.69-2.939-.719a.114.114 0 0 1 .138-.181c.009.007.917.672 2.8.672 1.883 0 2.792-.665 2.8-.672a.114.114 0 0 1 .181.106.114.114 0 0 1-.044.076c-.036.028-.969.718-2.936.718Z"></path><path class="ic-a-overseas_agents_svg__ic_a_overseas_agents" fill="#FFFFFF" d="M5.098 10.523a5.632 5.632 0 0 0 4.544.683 4.869 4.869 0 0 1-.84-.335 2.17 2.17 0 0 0 1.084-2.575C9.553 9.47 8.76 9.758 7.652 10.03a3.961 3.961 0 0 1-.436-.532 5.242 5.242 0 0 1-2.119 1.025Z"></path><path class="ic-a-overseas_agents_svg__ic_a_overseas_agents" fill="#231F20" d="M8.149 11.527a5.842 5.842 0 0 1-3.112-.908.113.113 0 0 1 .035-.207A5.16 5.16 0 0 0 7.144 9.41a.113.113 0 0 1 .165.023c.114.167.24.324.38.47 1.026-.254 1.775-.536 2.087-1.638a.114.114 0 0 1 .219 0 2.284 2.284 0 0 1-.944 2.6c.202.092.41.17.624.232a.113.113 0 0 1 0 .219c-.497.14-1.01.211-1.526.21Zm-2.76-.962a5.541 5.541 0 0 0 3.85.623 4.916 4.916 0 0 1-.486-.216.114.114 0 0 1-.063-.101.113.113 0 0 1 .063-.102 2.011 2.011 0 0 0 1.1-2.05c-.412.918-1.204 1.184-2.175 1.421a.115.115 0 0 1-.108-.031 4.13 4.13 0 0 1-.379-.45 5.37 5.37 0 0 1-1.802.906Z"></path><path class="ic-a-overseas_agents_svg__ic_a_overseas_agents" fill="#FFFFFF" d="M7.037 6.936a5.632 5.632 0 0 0-4.546-.682c.29.085.571.197.84.335A2.17 2.17 0 0 0 2.25 9.163C2.58 7.99 3.372 7.7 4.482 7.43c.16.164.306.342.436.531a5.241 5.241 0 0 1 2.119-1.025Z"></path><path class="ic-a-overseas_agents_svg__ic_a_overseas_agents" fill="#231F20" d="M2.248 9.276a.114.114 0 0 1-.11-.083 2.284 2.284 0 0 1 .944-2.6 4.81 4.81 0 0 0-.623-.231.114.114 0 0 1 0-.219 5.76 5.76 0 0 1 4.636.696.114.114 0 0 1-.034.207 5.159 5.159 0 0 0-2.072 1.003.114.114 0 0 1-.166-.024 3.864 3.864 0 0 0-.38-.471c-1.025.254-1.775.536-2.087 1.638a.114.114 0 0 1-.108.084Zm.65-3.005c.166.062.328.134.486.215a.113.113 0 0 1 0 .204 2.011 2.011 0 0 0-1.1 2.05c.412-.918 1.203-1.184 2.174-1.421a.114.114 0 0 1 .108.03c.137.141.264.292.38.45a5.368 5.368 0 0 1 1.803-.902 5.543 5.543 0 0 0-3.851-.626Z"></path></svg>