<svg xmlns:xlink="http://www.w3.org/1999/xlink" xmlns="http://www.w3.org/2000/svg" fill="none" viewBox="0 0 14 14" width="28" height="28" role="img"><path class="ic-a-white_papers_svg__ic_a_white_papers" fill="#FFFFFF" d="M2.942 11.298h6.374V2.702H2.942v8.596Z"></path><path class="ic-a-white_papers_svg__ic_a_white_papers" fill="#231F20" d="M9.316 11.46H2.94a.161.161 0 0 1-.162-.162V2.702a.162.162 0 0 1 .162-.161h6.374a.161.161 0 0 1 .161.161v8.596a.161.161 0 0 1-.16.161Zm-6.213-.323h6.051V2.863H3.103v8.274Z"></path><path class="ic-a-white_papers_svg__ic_a_white_papers" d="M8.303 3.92H4.148a.161.161 0 1 1 0-.323h4.155a.161.161 0 1 1 0 .323ZM7.189 4.992H4.147a.162.162 0 1 1 0-.322h3.042a.161.161 0 0 1 0 .322Zm.562 1.072H4.148a.161.161 0 1 1 0-.323H7.75a.162.162 0 0 1 0 .323Zm.552 1.07H4.148a.161.161 0 1 1 0-.322h4.155a.161.161 0 1 1 0 .322ZM7.08 8.205H4.145a.161.161 0 1 1 0-.323H7.08a.162.162 0 0 1 0 .323Zm1.223 1.07H4.148a.161.161 0 1 1 0-.322h4.155a.161.161 0 1 1 0 .322ZM7.08 10.346H4.145a.162.162 0 1 1 0-.322H7.08a.162.162 0 0 1 0 .322Z" fill="#231F20"></path><path class="ic-a-white_papers_svg__ic_a_white_papers" fill="#FBDC00" d="m9.316 5.188.573 1.764h1.855l-1.5 1.089.572 1.764-1.501-1.088-1.502 1.088.573-1.764-1.501-1.089H8.74l.576-1.764Z"></path><path class="ic-a-white_papers_svg__ic_a_white_papers" fill="#231F20" d="M10.817 9.97a.162.162 0 0 1-.095-.032L9.316 8.917 7.91 9.938a.162.162 0 0 1-.249-.18l.537-1.654-1.406-1.022a.161.161 0 0 1 .095-.291h1.739l.537-1.653a.16.16 0 0 1 .307 0l.537 1.653h1.739a.161.161 0 0 1 .095.291l-1.407 1.022.538 1.654a.163.163 0 0 1-.024.144.161.161 0 0 1-.13.067h-.001ZM9.316 8.555c.034 0 .067.011.095.031l1.1.8-.42-1.294a.161.161 0 0 1 .057-.18l1.1-.798H9.89a.162.162 0 0 1-.153-.112l-.42-1.292-.42 1.292a.162.162 0 0 1-.153.112h-1.36l1.1.798a.161.161 0 0 1 .057.18l-.42 1.293 1.1-.799a.162.162 0 0 1 .097-.03h-.002Z"></path></svg>