<svg xmlns:xlink="http://www.w3.org/1999/xlink" xmlns="http://www.w3.org/2000/svg" fill="none" viewBox="0 0 14 14" width="24" height="24" role="img"><path class="ic-a-channel_partner_program_svg__ic_a_channel_partner_program" fill="#000" d="m6.859 13-.12-.041a.89.89 0 0 1-.626-.832.88.88 0 0 1 .6-.848c.087-.029.118-.065.113-.155-.008-.128-.002-.256-.002-.398a3.91 3.91 0 0 1-1.254-.284 3.77 3.77 0 0 1-1.063-.674l-.942.943c.193.29.258.62.15.975a1.12 1.12 0 1 1-1.964-1.01c.27-.36.886-.658 1.56-.234l.842-.843c.028-.028.06-.05.099-.081a3.904 3.904 0 0 1-.696-1.094 3.824 3.824 0 0 1-.28-1.247c-.164 0-.315-.005-.466.005-.03.002-.069.061-.083.101a.9.9 0 0 1-.84.604.887.887 0 0 1-.297-1.722.876.876 0 0 1 1.127.543c.034.1.08.124.173.119.124-.007.25-.002.384-.002a3.744 3.744 0 0 1 .957-2.32l-.924-.925c-.15.054-.302.13-.462.162a1.113 1.113 0 0 1-1.28-.788 1.127 1.127 0 0 1 .673-1.358.51.51 0 0 1 .123-.035c.093-.01.161.028.188.12.027.091-.007.162-.089.207-.034.018-.073.027-.109.042a.775.775 0 0 0-.476.785.777.777 0 0 0 .66.692.773.773 0 0 0 .594-1.362l-.046-.035c-.094-.079-.113-.172-.05-.256.061-.084.161-.098.258-.026.359.268.523.628.459 1.071-.026.174-.108.338-.165.507l.921.924a3.74 3.74 0 0 1 2.317-.955c0-.161.005-.316-.004-.47-.002-.028-.059-.063-.096-.076a.888.888 0 0 1 .513-1.697c.37.102.635.438.65.826a.874.874 0 0 1-.588.856c-.103.035-.132.082-.124.183.008.12.002.241.002.376a3.748 3.748 0 0 1 2.319.959l.936-.944a1.125 1.125 0 0 1 1.716-1.441 1.12 1.12 0 0 1 .116 1.456c-.36.494-.934.589-1.569.257-.013.011-.029.023-.042.037l-.896.893c.59.666.914 1.44.969 2.335.162 0 .317.005.472-.005.027-.001.06-.06.073-.097.12-.317.338-.523.672-.59a.82.82 0 0 1 .847.303c.096.12.142.281.211.423v.281c-.005.006-.012.012-.014.018-.132.457-.429.712-.847.728-.395.015-.712-.219-.877-.644-.01-.025-.037-.06-.057-.06-.159-.006-.317-.004-.481-.004a3.743 3.743 0 0 1-.952 2.312l.944.943.048-.03c.311-.185.637-.221.979-.099.11.04.158.133.124.23-.032.09-.123.131-.23.102-.022-.005-.044-.015-.066-.02-.313-.078-.585-.005-.796.238a.728.728 0 0 0-.124.81c.158.37.574.55.954.421a.773.773 0 0 0 .496-.93c-.036-.148 0-.238.107-.266.116-.03.205.03.23.184.023.149.04.304.022.452-.069.56-.59.985-1.15.954a1.13 1.13 0 0 1-1.076-1.08c-.008-.26.07-.49.2-.688l-.94-.942a3.796 3.796 0 0 1-1.064.672 3.902 3.902 0 0 1-1.254.285c0 .142.005.27-.002.398-.005.09.025.127.112.155a.88.88 0 0 1 .6.802.892.892 0 0 1-.527.842c-.07.031-.146.052-.218.077h-.282Zm3.516-5.998a3.379 3.379 0 0 0-3.373-3.378 3.38 3.38 0 0 0-3.378 3.373 3.38 3.38 0 0 0 3.373 3.378 3.38 3.38 0 0 0 3.378-3.373Zm.21-4.368a.772.772 0 0 0 1.544.017.779.779 0 0 0-.77-.78.775.775 0 0 0-.773.763Zm-7.172 8.723a.771.771 0 0 0-1.542-.003.78.78 0 0 0 .776.774.775.775 0 0 0 .766-.77Zm9.235-4.36a.539.539 0 0 0-.538-.533.54.54 0 0 0-.53.531.54.54 0 0 0 .533.54.54.54 0 0 0 .535-.537Zm-5.654 5.65a.539.539 0 0 0 .541-.531.541.541 0 0 0-.536-.537.54.54 0 0 0-.535.527.539.539 0 0 0 .53.542Zm.008-11.296a.538.538 0 0 0-.538.534.54.54 0 0 0 .538.535.541.541 0 0 0 .533-.53.539.539 0 0 0-.533-.54v.001Zm-5.65 5.648c0 .294.244.538.536.536a.541.541 0 0 0 .532-.53.54.54 0 0 0-.532-.541.538.538 0 0 0-.537.535Z"></path><path class="ic-a-channel_partner_program_svg__ic_a_channel_partner_program" fill="#FEDE00" d="M10.375 7.002a3.38 3.38 0 0 1-3.378 3.372 3.38 3.38 0 0 1-3.372-3.377 3.38 3.38 0 0 1 3.377-3.373 3.38 3.38 0 0 1 3.373 3.378ZM5.189 8.804c0-.284-.003-.56 0-.837.006-.465.327-.788.791-.79.68-.003 1.36-.003 2.04 0 .464.002.784.324.79.79.003.25.001.5 0 .75 0 .03-.007.059-.01.083h-.63c0-.096.003-.182 0-.267-.004-.117-.076-.194-.176-.195-.1 0-.172.077-.174.194-.003.089 0 .178 0 .278-.138 0-.262-.003-.386 0-.126.005-.203.079-.199.184.004.101.078.166.2.166.509.002 1.017.002 1.524 0 .14 0 .202-.06.203-.198.001-.355.007-.711-.004-1.066a1.106 1.106 0 0 0-1.044-1.068l-.18-.011c.682-.722.438-1.598-.02-2.009a1.37 1.37 0 0 0-1.827 0c-.463.413-.701 1.29-.022 2.009-.081.005-.154.009-.226.015-.504.04-.961.478-.991.982-.023.39-.01.78-.008 1.171 0 .112.064.168.177.175.024.002.047 0 .07 0 .496 0 .992.002 1.488 0 .113 0 .185-.07.19-.166.003-.098-.066-.171-.176-.182-.05-.005-.102-.003-.152-.003H6.18v-.278c-.004-.116-.075-.194-.175-.193-.1 0-.172.078-.175.195-.003.089-.001.178-.001.271h-.64Zm5.397-6.17a.774.774 0 0 1 .773-.764.779.779 0 0 1 .77.781.772.772 0 0 1-1.543-.017Zm-7.173 8.723a.775.775 0 0 1-.766.771.78.78 0 0 1-.776-.774.771.771 0 0 1 1.543.003Zm9.235-4.359a.54.54 0 0 1-.535.537.54.54 0 0 1-.534-.54.54.54 0 0 1 .53-.531.539.539 0 0 1 .54.534Zm-5.654 5.65a.54.54 0 0 1-.53-.542.54.54 0 0 1 .535-.527.54.54 0 0 1 .536.537.539.539 0 0 1-.54.532ZM7.002 1.35a.539.539 0 0 1 .533.54.542.542 0 0 1-.533.53.541.541 0 0 1-.538-.535c0-.294.244-.536.538-.534ZM1.351 7c0-.295.244-.538.537-.536a.54.54 0 0 1 .532.541.541.541 0 0 1-.532.53.539.539 0 0 1-.537-.536Z"></path><path class="ic-a-channel_partner_program_svg__ic_a_channel_partner_program" fill="#000" d="M5.189 8.804h.64c0-.093-.002-.182 0-.27.004-.118.075-.195.176-.196.1 0 .17.077.175.194v.278h.257c.05 0 .101-.003.152.002.11.01.179.085.175.182-.004.097-.076.166-.189.166-.496.002-.992.001-1.488.001h-.07c-.113-.008-.177-.064-.178-.176-.001-.39-.014-.782.009-1.171.03-.503.487-.94.99-.982.073-.006.146-.01.227-.015-.68-.718-.44-1.596.022-2.008a1.369 1.369 0 0 1 1.826 0c.46.41.703 1.287.022 2.008l.179.012a1.106 1.106 0 0 1 1.044 1.067c.01.355.005.71.004 1.066-.001.139-.062.198-.203.199H7.436c-.123 0-.197-.065-.2-.167-.005-.105.072-.179.198-.183.124-.004.248 0 .385 0 0-.101-.002-.19 0-.279.004-.117.075-.194.175-.194.1 0 .172.078.176.195.003.086 0 .172 0 .267h.63c.003-.024.01-.053.01-.083 0-.25.003-.5 0-.75-.006-.466-.326-.787-.79-.79-.68-.003-1.36-.003-2.04 0-.464.003-.785.325-.79.79-.004.276-.001.553-.001.838ZM6.998 4.81A1.007 1.007 0 1 0 7 6.819a1.007 1.007 0 0 0-.002-2.01Z"></path><path class="ic-a-channel_partner_program_svg__ic_a_channel_partner_program" fill="#FFFFFF" d="M6.998 4.809a1.007 1.007 0 1 1 .003 2.01 1.007 1.007 0 0 1-.003-2.01Z"></path></svg>