<svg xmlns:xlink="http://www.w3.org/1999/xlink" xmlns="http://www.w3.org/2000/svg" fill="none" viewBox="0 0 14 14" width="24" height="24" role="img"><path class="ic-a-channel_partners_svg__ic_a_channel_partners" fill="#FBDC00" d="M7.21 11.518a4.518 4.518 0 1 0 0-9.036 4.518 4.518 0 0 0 0 9.036Z"></path><path class="ic-a-channel_partners_svg__ic_a_channel_partners" fill="#000" d="M7.208 11.64a4.64 4.64 0 1 1 0-9.28 4.64 4.64 0 0 1 0 9.28Zm0-9.036a4.396 4.396 0 1 0 0 8.79 4.396 4.396 0 0 0 0-8.789v-.001Z"></path><path class="ic-a-channel_partners_svg__ic_a_channel_partners" fill="#231F20" d="M7.21 11.64a.123.123 0 0 1-.112-.075.122.122 0 0 1-.01-.047V2.482a.122.122 0 0 1 .245 0v9.036a.123.123 0 0 1-.122.122Zm-1.64-.299a.122.122 0 0 1-.1-.05c-.042-.056-1.046-1.415-1.046-4.293 0-2.877 1.004-4.236 1.047-4.293a.122.122 0 1 1 .195.148c-.01.013-1 1.358-1 4.145 0 2.788.988 4.133 1 4.146a.123.123 0 0 1-.098.196l.003.002Zm3.292 0a.122.122 0 0 1-.1-.196c.01-.013 1-1.358 1-4.145 0-2.788-.987-4.133-1-4.146a.122.122 0 1 1 .196-.147C9 2.763 10.005 4.122 10.005 7c0 2.877-1.004 4.236-1.047 4.293a.123.123 0 0 1-.096.048Z"></path><path class="ic-a-channel_partners_svg__ic_a_channel_partners" fill="#231F20" d="M11.735 7.116H2.699a.123.123 0 0 1 0-.244h9.036a.122.122 0 0 1 0 .244Zm-.299-1.64a.123.123 0 0 1-.073-.024c-.013-.01-1.358-1-4.146-1s-4.133.988-4.146 1a.122.122 0 1 1-.147-.196C2.98 5.213 4.339 4.21 7.217 4.21s4.237 1.005 4.293 1.048a.123.123 0 0 1 .042.136.122.122 0 0 1-.116.083ZM7.216 9.79c-2.878 0-4.237-1.004-4.293-1.047a.122.122 0 1 1 .147-.195c.013.01 1.358 1 4.146 1s4.132-.988 4.145-1a.123.123 0 0 1 .15.195c-.057.043-1.416 1.048-4.295 1.048Z"></path><path class="ic-a-channel_partners_svg__ic_a_channel_partners" fill="#FFFFFF" d="M12.126 5.268h-3.38a.066.066 0 0 0-.046.019l-.593.58a.066.066 0 0 1-.112-.046v-.487a.066.066 0 0 0-.066-.066h-.65a.066.066 0 0 1-.066-.067V3.415a.066.066 0 0 1 .066-.066h4.85a.066.066 0 0 1 .066.066v1.786a.067.067 0 0 1-.02.048.067.067 0 0 1-.049.019Z"></path><path class="ic-a-channel_partners_svg__ic_a_channel_partners" fill="#231F20" d="M8.061 6.008a.19.19 0 0 1-.157-.083.188.188 0 0 1-.03-.104V5.39h-.597a.188.188 0 0 1-.188-.188V3.416a.188.188 0 0 1 .188-.188h4.85a.188.188 0 0 1 .188.188v1.787a.188.188 0 0 1-.188.188h-3.36l-.576.565a.188.188 0 0 1-.13.052Zm-.728-.863h.596a.188.188 0 0 1 .188.188v.353l.497-.487a.187.187 0 0 1 .131-.054h3.324V3.472H7.333v1.673Z"></path><path class="ic-a-channel_partners_svg__ic_a_channel_partners" fill="#FFFFFF" d="M1.874 6.875h3.729a.066.066 0 0 0 .045-.02l.666-.65a.066.066 0 0 1 .112.047v.559a.066.066 0 0 0 .065.065h.731a.066.066 0 0 1 .066.066v2.662a.066.066 0 0 1-.066.066h-5.35a.065.065 0 0 1-.066-.066V6.942a.065.065 0 0 1 .068-.067Z"></path><path class="ic-a-channel_partners_svg__ic_a_channel_partners" fill="#231F20" d="M7.222 9.79h-5.35a.188.188 0 0 1-.188-.188V6.939a.188.188 0 0 1 .188-.188h3.705l.65-.635a.188.188 0 0 1 .32.134v.5h.674a.188.188 0 0 1 .188.188V9.6a.188.188 0 0 1-.187.19Zm-5.291-.244h5.235v-2.55h-.674a.188.188 0 0 1-.188-.189v-.424l-.57.558a.187.187 0 0 1-.131.054H1.932l-.001 2.55Z"></path></svg>