<svg xmlns:xlink="http://www.w3.org/1999/xlink" xmlns="http://www.w3.org/2000/svg" fill="none" viewBox="0 0 21 21" width="28" height="28" role="img"><g filter="url(#ic-c-cogo_svg__a)" fill="none"><circle cx="10.5" cy="10.5" r="7.269" fill="#EE3425"></circle></g><mask id="ic-c-cogo_svg__b" fill="#FFFFFF"><path class="ic-c-cogo_svg__ic_c_cogo" fill-rule="evenodd" d="M12.442 8.04c.21-.21.594-.32.838-.077.242.243.132.628-.078.838-.124.123-.375.247-.628.35.213.316.366.678.44 1.069h-.181c-.211 0-.384.161-.384.359v.718c0 .137.082.256.202.317a.974.974 0 0 1-.966.955h-1.242a.284.284 0 1 0-.02.285h1.262c.254 0 .49-.077.686-.21a2.89 2.89 0 0 1-2.065 1.014 2.901 2.901 0 0 1-3.033-2.755 2.902 2.902 0 0 1 2.756-3.034 2.887 2.887 0 0 1 2.085.749c.098-.236.213-.462.328-.578Z" clip-rule="evenodd" fill="#FFFFFF"></path></mask><path class="ic-c-cogo_svg__ic_c_cogo" fill="#FCDC00" fill-rule="evenodd" d="M12.442 8.04c.21-.21.594-.32.838-.077.242.243.132.628-.078.838-.124.123-.375.247-.628.35.213.316.366.678.44 1.069h-.181c-.211 0-.384.161-.384.359v.718c0 .137.082.256.202.317a.974.974 0 0 1-.966.955h-1.242a.284.284 0 1 0-.02.285h1.262c.254 0 .49-.077.686-.21a2.89 2.89 0 0 1-2.065 1.014 2.901 2.901 0 0 1-3.033-2.755 2.902 2.902 0 0 1 2.756-3.034 2.887 2.887 0 0 1 2.085.749c.098-.236.213-.462.328-.578Z" clip-rule="evenodd"></path><path class="ic-c-cogo_svg__ic_c_cogo" fill="#FCDC00" d="M13.28 7.963v.154h.37l-.262-.262-.108.108Zm-.838.077-.108-.108.108.108Zm.837-.077V7.81h-.37l.261.262.11-.109Zm-.077.838.108.108-.108-.108Zm-.628.35-.057-.143-.176.071.106.157.127-.086Zm.44 1.069v.153h.186l-.035-.182-.15.029Zm-.363 1.394.154.005.004-.098-.088-.044-.07.137Zm-2.208.955-.138.068.042.086h.096v-.154Zm-.02.285v-.153h-.082l-.045.067.127.086Zm1.948-.21.117.1-.203-.227.086.127Zm-2.065 1.014-.007-.153.008.153Zm-3.033-2.755-.154.007.154-.007Zm2.756-3.034.007.153-.007-.153Zm2.085.749-.104.113.162.147.083-.201-.142-.06Zm1.274-.763a.639.639 0 0 0-.563-.175.91.91 0 0 0-.491.252l.216.217a.603.603 0 0 1 .322-.165.333.333 0 0 1 .299.088l.217-.217Zm-.109.262V7.81v.307Zm.031.792a.907.907 0 0 0 .252-.491.639.639 0 0 0-.174-.563l-.217.217c.08.08.105.184.088.3a.602.602 0 0 1-.166.32l.217.217Zm-.678.384c.13-.053.26-.112.377-.174.115-.062.224-.132.301-.21l-.217-.217a.996.996 0 0 1-.23.156c-.102.056-.223.11-.346.16l.115.285Zm.533.898a3.04 3.04 0 0 0-.463-1.126l-.255.171c.201.3.346.643.416 1.012l.302-.057Zm-.15-.125h-.183v.307h.182v-.307Zm-.183 0a.526.526 0 0 0-.536.513h.307c0-.104.094-.206.23-.206v-.307Zm-.536.513v.718h.307v-.718h-.307Zm0 .718c0 .2.12.37.286.454l.139-.274a.204.204 0 0 1-.118-.18h-.307Zm.202.31a.82.82 0 0 1-.813.809v.307c.612 0 1.096-.49 1.12-1.104l-.307-.011Zm-.813.809h-1.242v.307h1.242v-.307Zm-1.105.085a.437.437 0 0 0-.392-.244v.307a.13.13 0 0 1 .117.073l.275-.136Zm-.392-.244a.437.437 0 0 0-.438.438h.307a.13.13 0 0 1 .13-.13v-.308Zm-.438.438c0 .241.196.437.438.437v-.307a.13.13 0 0 1-.13-.13H9.75Zm.438.437c.15 0 .283-.076.361-.191l-.253-.173a.13.13 0 0 1-.108.057v.307Zm.234-.124h1.263V12.7h-1.263v.307Zm1.263 0c.286 0 .552-.087.773-.237l-.173-.255a1.064 1.064 0 0 1-.6.184v.308Zm-1.371.804a3.044 3.044 0 0 0 2.174-1.069l-.233-.2a2.737 2.737 0 0 1-1.956.962l.015.307ZM7.119 10.91a3.055 3.055 0 0 0 3.195 2.902l-.015-.307a2.748 2.748 0 0 1-2.873-2.61l-.307.015Zm2.902-3.194A3.056 3.056 0 0 0 7.12 10.91l.307-.015a2.748 2.748 0 0 1 2.61-2.873l-.014-.306Zm2.196.788a3.041 3.041 0 0 0-2.196-.788l.015.306a2.734 2.734 0 0 1 1.974.71l.207-.228Zm.116-.572c-.139.14-.264.393-.361.627l.283.118c.1-.238.204-.437.296-.528l-.218-.217Z" mask="url(#ic-c-cogo_svg__b)"></path><circle cx="10.298" cy="10.702" r="5.452" fill="#221F20"></circle><path class="ic-c-cogo_svg__ic_c_cogo" fill="#FCDC00" fill-rule="evenodd" d="M14.117 6.222c.352-.348.995-.531 1.402-.128.406.403.221 1.04-.13 1.388-.207.205-.627.41-1.05.58.356.525.611 1.125.736 1.772h-.304c-.353 0-.641.268-.641.596v1.19c0 .226.137.424.338.525-.034.888-.738 1.584-1.617 1.584h-2.08a.476.476 0 0 0-.902.207.476.476 0 0 0 .868.265h2.114c.425 0 .82-.128 1.147-.349a4.855 4.855 0 0 1-3.455 1.682c-2.671.127-4.949-1.922-5.077-4.568-.128-2.645 1.941-4.901 4.613-5.028a4.86 4.86 0 0 1 3.489 1.24c.164-.39.356-.765.55-.956ZM7.91 9.658a.62.62 0 0 1-.623.617.62.62 0 0 1-.624-.617.62.62 0 0 1 .624-.618.62.62 0 0 1 .623.618Zm4.365 0a.62.62 0 0 1-.624.617.62.62 0 0 1-.623-.617.62.62 0 0 1 .623-.618.62.62 0 0 1 .624.618ZM10.7 11.7c.076-.056.192-.1.265-.017.14.158.051.408-.053.56-.134.197-.368.33-.584.434l-.013.006c-.323.152-.65.21-1.052.21s-.73-.058-1.053-.21l-.013-.005c-.216-.105-.45-.238-.584-.434-.104-.154-.192-.403-.052-.561.073-.083.188-.039.265.017.102.074.204.146.314.21.218.127.457.225.71.266a3 3 0 0 0 .825 0 2.07 2.07 0 0 0 .711-.266 3.73 3.73 0 0 0 .314-.21Z" clip-rule="evenodd"></path><defs><filter id="ic-c-cogo_svg__a" width="21" height="21" x="0" y="0" color-interpolation-filters="sRGB" filterUnits="userSpaceOnUse"><feFlood flood-opacity="0" result="BackgroundImageFix"></feFlood><feColorMatrix in="SourceAlpha" result="hardAlpha" values="0 0 0 0 0 0 0 0 0 0 0 0 0 0 0 0 0 0 127 0"></feColorMatrix><feOffset></feOffset><feGaussianBlur stdDeviation="1.556"></feGaussianBlur><feComposite in2="hardAlpha" operator="out"></feComposite><feColorMatrix values="0 0 0 0 0.384314 0 0 0 0 0.498039 0 0 0 0 0.67451 0 0 0 0.2 0"></feColorMatrix><feBlend in2="BackgroundImageFix" result="effect1_dropShadow_1805_25286"></feBlend><feBlend in="SourceGraphic" in2="effect1_dropShadow_1805_25286" result="shape"></feBlend></filter></defs></svg>