<svg xmlns:xlink="http://www.w3.org/1999/xlink" xmlns="http://www.w3.org/2000/svg" fill="#FBDC00" viewBox="0 0 14 14" width="28" height="28" role="img"><path class="ic-m-notifications_svg__ic_m_notifications" d="M6.742 1.034a1.016 1.016 0 0 0-.601.524c-.055.119-.063.17-.074.459l-.012.325-.21.061C4.66 2.746 3.763 3.691 3.417 4.96c-.156.573-.156.567-.167 2.551l-.01 1.807-.572.56c-.317.311-.591.599-.616.648a.437.437 0 0 0 .144.55l.099.066 4.657.007c3.183.004 4.683-.001 4.741-.018a.438.438 0 0 0 .262-.599c-.021-.044-.299-.336-.618-.648l-.58-.567-.001-1.619c0-.905-.01-1.738-.023-1.888-.15-1.696-1.113-2.968-2.578-3.408l-.21-.063-.012-.324c-.011-.308-.015-.332-.088-.479a1.01 1.01 0 0 0-.488-.464 1.212 1.212 0 0 0-.615-.038m-.989 10.849c.062.446.314.803.696.984.37.175.734.175 1.099 0 .386-.184.637-.538.699-.984l.014-.1H5.739l.014.1" fill-rule="evenodd" fill="#FBDC00"></path></svg>