<svg xmlns:xlink="http://www.w3.org/1999/xlink" xmlns="http://www.w3.org/2000/svg" fill="#EE3124" viewBox="0 0 14 14" width="15" height="15" role="img" class="styles_rate_arrow__xVCzM"><path class="ic-m-arrow_rotate_up_svg__ic_m_arrow_rotate_up" d="M6.907 4.223a.595.595 0 0 0-.152.053c-.038.021-1.179 1.149-2.534 2.507-2.604 2.61-2.518 2.516-2.518 2.718 0 .203.182.432.384.483.151.038 9.679.037 9.83-.001a.546.546 0 0 0 .38-.484c0-.199.084-.109-2.518-2.716-1.355-1.358-2.501-2.488-2.546-2.511a.52.52 0 0 0-.326-.049" fill-rule="evenodd" fill="#EE3124"></path></svg>