<svg xmlns:xlink="http://www.w3.org/1999/xlink" xmlns="http://www.w3.org/2000/svg" fill="none" viewBox="0 0 14 14" width="28" height="28" role="img"><path class="ic-a-port_info_svg__ic_a_port_info" fill="#FFFFFF" d="M3.356 11.688h7.289V2.31h-7.29v9.379Z"></path><path class="ic-a-port_info_svg__ic_a_port_info" fill="#231F20" d="M10.645 11.797h-7.29a.108.108 0 0 1-.108-.109V2.311a.108.108 0 0 1 .109-.108h7.289a.108.108 0 0 1 .109.108v9.38a.109.109 0 0 1-.109.106Zm-7.181-.216h7.072V2.418H3.465v9.162Z"></path><path class="ic-a-port_info_svg__ic_a_port_info" fill="#FBDC00" d="m9.09 6.311-.69.333.283.125a1.557 1.557 0 0 1-1.044.814 14.456 14.456 0 0 1-.342-2.074h.667v-.381H7.26a6.026 6.026 0 0 1-.028-.904.582.582 0 1 0-.462 0c.013.302.003.604-.029.904h-.703v.381h.666a14.434 14.434 0 0 1-.341 2.074 1.558 1.558 0 0 1-1.044-.814l.282-.125-.69-.333-.204.728.313-.113C5.349 8.3 7 8.563 7 8.563S8.65 8.3 8.982 6.925l.313.114-.204-.728ZM7 3.948a.258.258 0 1 1 0-.516.258.258 0 0 1 0 .515v.001Z"></path><path class="ic-a-port_info_svg__ic_a_port_info" fill="#231F20" d="M7 8.671a.1.1 0 0 1-.017 0c-.068-.011-1.636-.276-2.037-1.603l-.203.073a.108.108 0 0 1-.141-.131l.204-.727a.109.109 0 0 1 .15-.068l.69.332a.109.109 0 0 1-.003.197l-.184.081c.203.3.5.523.846.633.065-.236.184-1.058.276-1.84h-.545a.108.108 0 0 1-.108-.108v-.382a.109.109 0 0 1 .108-.109h.6v-.014c.014-.237.036-.582.032-.707a.69.69 0 1 1 .656 0c-.003.125.019.47.033.707v.014h.6a.109.109 0 0 1 .109.109v.382a.109.109 0 0 1-.109.109h-.545c.093.782.21 1.604.276 1.84.345-.11.643-.334.846-.633l-.184-.081a.108.108 0 0 1-.004-.197l.69-.333a.108.108 0 0 1 .15.069l.204.726a.108.108 0 0 1-.14.131l-.203-.072c-.4 1.327-1.969 1.592-2.038 1.603L7 8.67ZM5.019 6.817a.108.108 0 0 1 .106.083C5.415 8.115 6.827 8.42 7 8.453c.173-.034 1.585-.34 1.876-1.553a.109.109 0 0 1 .142-.078l.114.042-.112-.4-.362.174.068.03a.12.12 0 0 1 .065.119 1.67 1.67 0 0 1-1.131.9.129.129 0 0 1-.094-.021c-.042-.031-.142-.104-.378-2.147a.109.109 0 0 1 .107-.12h.559v-.165h-.595a.108.108 0 0 1-.108-.1l-.007-.116c-.053-.85-.046-.855.044-.893a.474.474 0 1 0-.376 0c.089.038.096.041.044.893l-.007.115a.108.108 0 0 1-.108.1h-.595v.166h.559a.108.108 0 0 1 .107.12c-.236 2.042-.336 2.115-.378 2.146a.127.127 0 0 1-.093.021 1.672 1.672 0 0 1-1.133-.9.12.12 0 0 1 .066-.117l.068-.031-.362-.175-.113.4.115-.041a.112.112 0 0 1 .037-.005ZM7 4.056a.367.367 0 1 1 0-.732.367.367 0 0 1 0 .732Zm0-.516a.15.15 0 1 0 0 .3.15.15 0 0 0 0-.301Zm2.684 6.664H4.317a.109.109 0 0 1 0-.217h5.367a.109.109 0 0 1 0 .216Zm0-.767H4.317a.109.109 0 0 1 0-.216h5.367a.108.108 0 0 1 0 .216Zm0 1.493H4.317a.108.108 0 1 1 0-.216h5.367a.108.108 0 1 1 0 .216Z"></path></svg>