<svg xmlns:xlink="http://www.w3.org/1999/xlink" xmlns="http://www.w3.org/2000/svg" fill="none" viewBox="0 0 14 14" width="28" height="28" role="img"><path class="ic-a-custome_agents_svg__ic_a_custome_agents" fill="#FBDC00" d="M11.378 1.817H7.041c-.865 0-1.541-.181-1.541.683l-.024 6.745c0 .864.7 1.565 1.565 1.565h3.374c.865 0 1.565.212 1.565-.652V3.381c0-.864.262-1.564-.602-1.564Z"></path><path class="ic-a-custome_agents_svg__ic_a_custome_agents" fill="#231F20" d="M11.553 10.926h-5.65a.544.544 0 0 1-.544-.543V2.244a.544.544 0 0 1 .544-.543h5.65a.544.544 0 0 1 .543.543v8.138a.544.544 0 0 1-.543.544Zm-5.65-8.993a.311.311 0 0 0-.311.311v8.138a.312.312 0 0 0 .311.311h5.65a.311.311 0 0 0 .311-.311V2.244a.311.311 0 0 0-.311-.311h-5.65Z"></path><path class="ic-a-custome_agents_svg__ic_a_custome_agents" d="M8.913 3.659H6.32a.115.115 0 0 1 0-.23h2.593a.115.115 0 0 1 0 .23Zm0 .777H6.32a.115.115 0 0 1 0-.23h2.593a.115.115 0 1 1 0 .23Zm-.001 5.399h-.747a.115.115 0 0 1 0-.23h.747a.115.115 0 1 1 0 .23Zm0-.747H6.777a.115.115 0 0 1 0-.23h2.135a.115.115 0 0 1 0 .23Zm0-2.715H7.616a.115.115 0 1 1 0-.23h1.296a.115.115 0 0 1 0 .23Zm0 .763H7.417a.115.115 0 0 1 0-.23h1.495a.115.115 0 0 1 0 .23Zm1.183 2.552a.114.114 0 0 1-.086-.039l-.558-.631a.115.115 0 0 1 .173-.15l.46.521.9-1.288a.115.115 0 0 1 .189.131l-.983 1.409a.115.115 0 0 1-.088.05l-.007-.003Zm0-2.703a.115.115 0 0 1-.086-.039l-.558-.631a.115.115 0 0 1 .173-.15l.46.521.9-1.288a.115.115 0 0 1 .189.132l-.983 1.408a.116.116 0 0 1-.088.05l-.007-.003Zm0-2.703a.115.115 0 0 1-.086-.039l-.558-.63a.115.115 0 0 1 .173-.15l.46.521.9-1.288a.116.116 0 0 1 .163-.033.115.115 0 0 1 .026.164l-.983 1.409a.115.115 0 0 1-.088.05l-.007-.004Z" fill="#231F20"></path><path class="ic-a-custome_agents_svg__ic_a_custome_agents" fill="#FFFFFF" d="m2.033 12.18.142-1.687a1.37 1.37 0 0 1 .369-.838c.805-.836 2.267-.8 2.267-.8a2.955 2.955 0 0 1 1.083.007s1.7.2 2.14.642a1.526 1.526 0 0 1 .471.985l.15 1.693-6.622-.002Z"></path><path class="ic-a-custome_agents_svg__ic_a_custome_agents" fill="#231F20" d="M8.785 12.3H1.904l.15-1.816a1.49 1.49 0 0 1 .4-.911c.8-.832 2.188-.839 2.343-.838.37-.066.748-.063 1.116.009.062.007 1.737.21 2.2.674a1.653 1.653 0 0 1 .505 1.061l.167 1.82Zm-6.623-.238h6.364l-.139-1.564a1.414 1.414 0 0 0-.435-.909c-.341-.341-1.613-.556-2.074-.611a2.846 2.846 0 0 0-1.05-.008h-.024c-.016 0-1.421-.022-2.179.766a1.26 1.26 0 0 0-.337.766l-.126 1.56Z"></path><path class="ic-a-custome_agents_svg__ic_a_custome_agents" fill="#FBDC00" d="m6.715 8.997-1.222 2.616a.163.163 0 0 1-.284 0L4.024 8.929l.75-.125c.36-.099.738-.099 1.098 0l.843.193Z"></path><path class="ic-a-custome_agents_svg__ic_a_custome_agents" fill="#231F20" d="M5.35 11.818a.281.281 0 0 1-.245-.144l-1.25-2.833.895-.15a2.168 2.168 0 0 1 1.154 0l.983.222-1.284 2.75a.284.284 0 0 1-.25.153l-.002.002ZM4.196 9.024l1.122 2.544a.041.041 0 0 0 .034.012.043.043 0 0 0 .038-.023l1.156-2.476-.7-.158a1.93 1.93 0 0 0-1.036 0l-.015.004-.6.097Z"></path><path class="ic-a-custome_agents_svg__ic_a_custome_agents" fill="#231F20" d="m5.91 8.707-.08.446a.575.575 0 0 1-.477.531.51.51 0 0 1-.359-.204.832.832 0 0 1-.147-.44 2.454 2.454 0 0 1-.034-.463c.32.15.678.199 1.027.142l.07-.012Z"></path><path class="ic-a-custome_agents_svg__ic_a_custome_agents" fill="#FFFFFF" d="m5.466 4.303 2.05.913a.138.138 0 0 1 .056.207l-.435.597a.137.137 0 0 1-.112.057h-3.38a.139.139 0 0 1-.106-.05l-.482-.576a.138.138 0 0 1 .052-.216l2.251-.932a.138.138 0 0 1 .106 0Z"></path><path class="ic-a-custome_agents_svg__ic_a_custome_agents" fill="#231F20" d="M7.026 6.197h-3.38a.256.256 0 0 1-.197-.093l-.483-.575a.256.256 0 0 1 .1-.4l2.247-.934a.258.258 0 0 1 .203 0l2.05.913a.257.257 0 0 1 .103.385l-.434.598a.257.257 0 0 1-.209.106ZM5.41 4.41a.02.02 0 0 0-.007 0l-2.247.934a.018.018 0 0 0-.011.013.018.018 0 0 0 .004.017l.482.575a.02.02 0 0 0 .015.008h3.38a.02.02 0 0 0 .016-.009l.435-.596a.02.02 0 0 0 0-.024.019.019 0 0 0-.008-.005l-2.05-.913a.02.02 0 0 0-.009.001Z"></path><path class="ic-a-custome_agents_svg__ic_a_custome_agents" fill="#FFFFFF" d="M3.58 6.087h3.521l-.31.442a.432.432 0 0 1-.227.166l-1.054.322a.433.433 0 0 1-.25 0l-1.079-.32a.432.432 0 0 1-.21-.139l-.39-.471Z"></path><path class="ic-a-custome_agents_svg__ic_a_custome_agents" fill="#231F20" d="M5.384 7.155a.553.553 0 0 1-.156-.023l-1.078-.32a.55.55 0 0 1-.269-.176l-.55-.668h4l-.44.63a.554.554 0 0 1-.29.21l-1.055.323a.55.55 0 0 1-.162.024Zm-1.55-.95.231.279c.04.047.093.082.152.1l1.079.319a.311.311 0 0 0 .18 0l1.054-.322a.315.315 0 0 0 .166-.12l.179-.256h-3.04Z"></path><path class="ic-a-custome_agents_svg__ic_a_custome_agents" fill="#FFFFFF" d="M6.661 6.651v.927c.001.233-.068.46-.2.653-.16.255-.41.442-.7.525a1.414 1.414 0 0 1-1.536-.565 1.126 1.126 0 0 1-.17-.605V6.65l1.314.392a.138.138 0 0 0 .081 0l1.211-.39Z"></path><path class="ic-a-custome_agents_svg__ic_a_custome_agents" fill="#231F20" d="M5.383 8.925a1.538 1.538 0 0 1-1.259-.669 1.25 1.25 0 0 1-.189-.668V6.492l1.467.437 1.375-.44V7.58c.002.257-.076.51-.222.721-.175.28-.448.483-.766.572a1.659 1.659 0 0 1-.406.052ZM4.173 6.81v.779a1 1 0 0 0 .15.54 1.31 1.31 0 0 0 1.406.514c.262-.075.487-.245.63-.477a1.02 1.02 0 0 0 .18-.585v-.767l-1.054.34a.253.253 0 0 1-.15 0L4.172 6.81Zm1.15 2.599.516.55-.5 1.136-.473-1.136.457-.55Z"></path><path class="ic-a-custome_agents_svg__ic_a_custome_agents" fill="#FBDC00" d="M4.634 7.504a.359.359 0 0 1 .24-.087.355.355 0 0 1 .205.074"></path><path class="ic-a-custome_agents_svg__ic_a_custome_agents" fill="#000" d="m4.682 7.56-.1-.113a.423.423 0 0 1 .54-.015l-.091.119a.274.274 0 0 0-.35.01h.001Z"></path><path class="ic-a-custome_agents_svg__ic_a_custome_agents" fill="#FBDC00" d="M5.737 7.445a.464.464 0 0 1 .442-.021"></path><path class="ic-a-custome_agents_svg__ic_a_custome_agents" fill="#000" d="m5.776 7.511-.075-.13a.532.532 0 0 1 .513-.022l-.07.133a.384.384 0 0 0-.368.02Zm-.332.555a.289.289 0 0 1-.115-.022l.06-.138a.19.19 0 0 0 .123 0l-.032-.05a.874.874 0 0 1-.167-.427l.15-.017a.725.725 0 0 0 .14.358c.041.058.083.119.057.19a.147.147 0 0 1-.087.081.342.342 0 0 1-.129.025Z"></path><path class="ic-a-custome_agents_svg__ic_a_custome_agents" fill="#000" d="M5.379 8.428a.734.734 0 0 1-.12-.01.925.925 0 0 1-.631-.5l.134-.067a.787.787 0 0 0 .521.417.628.628 0 0 0 .503-.15l.1.112a.785.785 0 0 1-.507.198Z"></path></svg>