<svg xmlns:xlink="http://www.w3.org/1999/xlink" xmlns="http://www.w3.org/2000/svg" fill="none" viewBox="0 0 14 14" width="24" height="24" role="img"><path class="ic-a-book_your_shipment_svg__ic_a_book_your_shipment" fill="#FBDC00" d="M12.483 10.066c.06-.025-.782.439-.716.426a.964.964 0 0 1 .4-.225c-.003-.003-.003-.006-.006-.01-.056-.097-.028-.178.088-.25.385-.244.491-.645.316-1.058a6.22 6.22 0 0 1-.25-.752 8.893 8.893 0 0 0-.627-1.624 73.103 73.103 0 0 0-.629-1.203.438.438 0 0 0-.767-.015c-.066.11-.081.222-.013.341.098.17.185.344.273.517.066.128.044.216-.06.269-.103.05-.188.016-.253-.11-.088-.166-.182-.328-.26-.497-.072-.154-.191-.207-.348-.2A.426.426 0 0 0 9.224 6a.323.323 0 0 0 .025.21c.085.184.185.36.28.541.065.125.046.22-.057.27-.104.053-.188.018-.254-.107-.084-.16-.172-.313-.247-.48-.078-.168-.204-.237-.382-.225a.447.447 0 0 0-.385.298.386.386 0 0 0 .025.316c.084.16.169.316.25.476.066.125.044.216-.056.27-.103.052-.188.018-.254-.107a230319.702 230319.702 0 0 0-1.468-2.8c-.128-.234-.32-.312-.532-.218a.464.464 0 0 0-.257.582c.019.05.044.1.069.147.532 1.015 1.064 2.032 1.597 3.046l.037.072c.04.079.038.154-.022.216-.065.07-.144.07-.225.025l-.84-.441c-.021-.01-.04-.022-.062-.031-.25-.129-.482-.06-.604.178-.119.238-.04.473.207.598.864.43 1.725.858 2.589 1.28.25.123.441.301.576.545.228.42.676.558 1.099.342.328-.17 1.474-.69 1.803-.858.05-.025.213-.191.26-.17a.305.305 0 0 1 .087.091Z"></path><path class="ic-a-book_your_shipment_svg__ic_a_book_your_shipment" fill="#000" d="M13 9.469c-.038.112-.069.231-.116.338a1.09 1.09 0 0 1-.466.491c-.12.07-.2.057-.26-.044-.056-.097-.367.004.088-.25.385-.244.491-.645.316-1.058a6.237 6.237 0 0 1-.25-.752 8.886 8.886 0 0 0-.627-1.624 72.339 72.339 0 0 0-.63-1.203.438.438 0 0 0-.766-.015c-.066.11-.082.222-.013.34.097.17.185.345.273.518.065.128.043.216-.06.269-.103.05-.188.015-.253-.11-.088-.166-.182-.329-.26-.498-.072-.153-.191-.206-.348-.2a.426.426 0 0 0-.407.326.323.323 0 0 0 .025.21c.085.184.185.36.279.541.066.125.047.22-.056.27-.104.052-.188.018-.254-.107-.085-.16-.172-.316-.247-.48a.358.358 0 0 0-.382-.225.447.447 0 0 0-.385.298.386.386 0 0 0 .025.316c.084.16.169.316.25.476.066.125.044.216-.056.27-.104.052-.188.018-.254-.107L6.748 4.754a1.366 1.366 0 0 0-.05-.094c-.128-.235-.32-.313-.532-.22a.464.464 0 0 0-.257.583c.019.05.044.1.069.147l1.596 3.046.038.072c.04.079.038.154-.022.216-.066.07-.144.07-.225.025l-.84-.441c-.021-.01-.04-.022-.062-.031-.25-.129-.482-.06-.604.178-.12.238-.04.473.206.598.865.429 1.725.858 2.59 1.28.25.123.441.301.576.545.228.42.676.558 1.098.341.33-.169.655-.344.987-.513.05-.025 1.03-.532 1.077-.513a.22.22 0 0 1 .11.147.203.203 0 0 1-.082.16c-.382.206-1.66.907-2.057 1.083-.51.228-1.137.006-1.409-.482a1.084 1.084 0 0 0-.526-.492c-.163-.072-.32-.156-.5-.244v2.082c0 .494-.276.773-.768.773h-5.4C1.279 13 1 12.721 1 12.236V1.855c0-.504.125-.783.564-.852h.657c.084.056.138.125.103.235-.034.106-.119.119-.216.119a9.513 9.513 0 0 0-.422 0c-.166.006-.307.113-.323.27-.015.187-.003.378-.003.566h6.22v-.417c0-.306-.118-.422-.425-.422H2.136c-.093 0-.181-.01-.219-.116-.037-.107.016-.179.097-.238h5.36c.426.138.564.441.56.87-.012 1.393-.003 2.787-.003 4.183v.11c.144-.094.276-.213.43-.267.159-.053.34-.037.528-.053.22-.45.436-.563 1.015-.507l.047-.103a.753.753 0 0 1 .673-.451c.303-.019.566.09.71.363.332.636.683 1.265.955 1.925.279.677.476 1.39.711 2.089v.31Zm-5.42 1.208c0-.225.004-.441-.002-.66 0-.026-.044-.06-.076-.076l-1.671-.81c-.016.015-.044.04-.072.068-.335.307-.73.482-1.184.501-1.22.053-2.144-.967-1.978-2.179.14-1.023 1.158-1.765 2.179-1.584.839.15 1.459.792 1.574 1.637.004.032.029.076.054.088.166.085.338.16.507.238l.131.063-.072-.144c-.41-.78-.82-1.563-1.227-2.345-.044-.085-.09-.116-.185-.116-1.102.003-2.204.003-3.303.003-.306 0-.47-.163-.472-.47V3.777c0-.341.153-.495.491-.495h4.44c.263 0 .432.166.435.432.003.116.012.235-.003.351A1.87 1.87 0 0 0 7.47 5.38c.035.047.057.103.085.153.006-.003.012-.006.015-.01V2.566H1.363v8.109c2.073.003 4.139.003 6.218.003Zm-.006.366h-6.22v1.246c0 .229.138.367.363.367h5.491c.232 0 .366-.135.366-.376.004-.391 0-.78 0-1.17.007-.02.004-.038 0-.067Zm-1.58-3.362c.009-.632-.58-1.274-1.265-1.393A1.544 1.544 0 0 0 3.72 9.162c.698.385 1.487.147 1.853-.285-.307-.567 0-1.049.42-1.196Zm.804-3.469c0-.147-.006-.285.003-.426.006-.116-.028-.153-.15-.153-1.456.003-2.912.003-4.367.003-.144 0-.148.003-.148.153v1.065c0 .153.004.156.16.156h3.228a.813.813 0 0 1 1.274-.798Z"></path><path class="ic-a-book_your_shipment_svg__ic_a_book_your_shipment" fill="#FFFFFF" d="M3.207 1.363h3.945c.307 0 .426.12.426.423v.416H1.357c0-.188-.013-.379.003-.566.016-.157.157-.263.323-.27.14-.003.281-.003.422 0m5.475 9.311H1.367V2.568h6.208v2.959c-.006.003-.012.006-.015.01-.028-.05-.05-.107-.085-.154a1.854 1.854 0 0 1-.325-1.315c.012-.116.003-.235.003-.35-.003-.264-.17-.43-.435-.433h-4.44c-.338 0-.491.154-.491.495v1.115c0 .306.166.47.473.47 1.102 0 2.204 0 3.302-.004.098 0 .144.031.185.116.407.783.817 1.562 1.224 2.342.02.037.038.075.072.144-.062-.028-.097-.047-.131-.063-.17-.078-.341-.153-.507-.238-.025-.012-.05-.056-.054-.088a1.903 1.903 0 0 0-1.574-1.637c-1.021-.181-2.038.56-2.18 1.584a1.893 1.893 0 0 0 1.98 2.18 1.825 1.825 0 0 0 1.255-.57l1.671.81c.032.016.076.05.076.075.003.22.003.439.003.661Zm-.006.366c.004.029.007.047.007.066 0 .391.003.78 0 1.17-.003.242-.135.377-.367.377h-5.49c-.23 0-.364-.138-.364-.367-.003-.413 0-.826 0-1.246h6.214ZM4.46 12.314c.173 0 .345.004.517 0 .288-.009.46-.184.46-.463.003-.279-.172-.467-.454-.473a28.068 28.068 0 0 0-1.03 0c-.282.006-.46.197-.46.473 0 .275.178.457.463.466.17 0 .335-.003.504-.003Z"></path><path class="ic-a-book_your_shipment_svg__ic_a_book_your_shipment" fill="#FBDC00" d="M5.994 7.68c-.42.148-.727.63-.423 1.197-.366.432-1.155.67-1.853.285a1.546 1.546 0 0 1 1.008-2.874c.688.119 1.277.76 1.268 1.393ZM4.09 8.2l-.344-.35c-.116-.116-.207-.128-.291-.047-.088.088-.079.175.037.291l.423.423c.14.14.213.14.354 0l.92-.92c.103-.104.207-.201.304-.31.069-.076.06-.16-.013-.232-.069-.072-.15-.078-.232-.016-.03.022-.056.053-.084.082-.35.356-.704.71-1.074 1.08Z"></path><path class="ic-a-book_your_shipment_svg__ic_a_book_your_shipment" fill="#FFFFFF" d="M6.798 4.212a.814.814 0 0 0-1.274.798H2.296c-.156 0-.16-.003-.16-.156V3.789c0-.15.004-.153.148-.153 1.455 0 2.911 0 4.367-.003.122 0 .156.037.15.153-.012.141-.003.279-.003.426Z"></path><path class="ic-a-book_your_shipment_svg__ic_a_book_your_shipment" fill="#000" d="M4.46 12.314c-.17 0-.336.004-.505 0-.285-.009-.46-.19-.463-.466 0-.276.178-.467.46-.473.345-.006.689-.006 1.03 0 .282.006.454.194.454.473-.003.278-.175.457-.46.463-.172.007-.344.003-.517.003Zm.009-.35h.491c.082 0 .141-.032.141-.12 0-.087-.062-.118-.144-.118h-.983c-.078 0-.14.028-.138.122 0 .094.063.116.141.116h.492ZM4.09 8.2c.37-.369.723-.723 1.074-1.076.028-.029.053-.06.084-.082.082-.062.163-.056.232.016.069.072.078.156.013.232-.097.106-.204.206-.304.31l-.92.92c-.138.138-.213.138-.354 0l-.423-.423c-.116-.116-.128-.203-.037-.29.084-.082.178-.07.29.046.113.11.223.226.345.348Z"></path><path class="ic-a-book_your_shipment_svg__ic_a_book_your_shipment" fill="#FFFFFF" d="M4.469 11.964h-.492c-.078 0-.14-.025-.14-.116 0-.09.059-.12.137-.122h.983c.082 0 .141.031.144.119 0 .087-.06.119-.14.119h-.492Z"></path></svg>