<svg xmlns:xlink="http://www.w3.org/1999/xlink" xmlns="http://www.w3.org/2000/svg" fill="none" viewBox="0 0 14 14" width="28" height="28" role="img"><path class="ic-a-transporters__svg__ic_a_transporters" fill="#FBDC00" d="M8.156 5.848H2.867v3.99h5.289v-3.99Z"></path><path class="ic-a-transporters__svg__ic_a_transporters" fill="#000" d="M8.156 9.948H2.867a.11.11 0 0 1-.11-.11V5.849a.11.11 0 0 1 .11-.11h5.289a.11.11 0 0 1 .111.11v3.989a.11.11 0 0 1-.111.11ZM2.98 9.727h5.067V5.959H2.98v3.768Z"></path><path class="ic-a-transporters__svg__ic_a_transporters" fill="#FBDC00" d="M10.8 9.838H8.156v-3.13h1.95l.696 1.816-.002 1.314Z"></path><path class="ic-a-transporters__svg__ic_a_transporters" fill="#000" d="M10.802 9.95H8.158a.11.11 0 0 1-.111-.11V6.71a.11.11 0 0 1 .11-.111h1.95a.11.11 0 0 1 .104.071l.695 1.816a.111.111 0 0 1 .008.039V9.84a.11.11 0 0 1-.112.11Zm-2.534-.22h2.423V8.546l-.66-1.726H8.268v2.909Zm-1.244-.408a.11.11 0 0 1-.11-.11V6.638a.11.11 0 0 1 .221 0V9.21a.11.11 0 0 1-.111.111Zm-1.132 0a.11.11 0 0 1-.11-.11V6.638a.11.11 0 1 1 .221 0V9.21a.11.11 0 0 1-.111.111Zm-1.059 0a.11.11 0 0 1-.111-.11V6.638a.11.11 0 0 1 .221 0V9.21a.11.11 0 0 1-.11.111Zm-1.063 0a.11.11 0 0 1-.111-.11V6.638a.11.11 0 1 1 .221 0V9.21a.11.11 0 0 1-.11.111Z"></path><path class="ic-a-transporters__svg__ic_a_transporters" fill="#FFFFFF" d="M10.768 8.523H9.124a.213.213 0 0 1-.212-.212V6.707h1.14a.079.079 0 0 1 .074.05l.664 1.735a.023.023 0 0 1-.003.021.022.022 0 0 1-.02.01Z"></path><path class="ic-a-transporters__svg__ic_a_transporters" fill="#000" d="M10.768 8.634H9.124a.323.323 0 0 1-.323-.323V6.708a.11.11 0 0 1 .11-.111h1.14a.19.19 0 0 1 .177.122l.664 1.735a.132.132 0 0 1-.062.165.133.133 0 0 1-.062.015ZM9.023 6.82v1.493a.1.1 0 0 0 .1.1h1.515l-.61-1.594-1.005.001Zm1.709 2.507h-.718a.11.11 0 1 1 0-.222h.718a.11.11 0 0 1 0 .222Z"></path><path class="ic-a-transporters__svg__ic_a_transporters" fill="#FBDC00" d="M11.133 9.841H3.705v1.016h7.428V9.84Z"></path><path class="ic-a-transporters__svg__ic_a_transporters" fill="#000" d="M11.133 10.967H3.705a.11.11 0 0 1-.11-.11V9.842a.11.11 0 0 1 .11-.11h7.428a.11.11 0 0 1 .11.11v1.015a.11.11 0 0 1-.11.11Zm-7.318-.221h7.207v-.793H3.814v.793Z"></path><path class="ic-a-transporters__svg__ic_a_transporters" fill="#FBDC00" d="M9.342 11.681a.683.683 0 1 0 0-1.366.683.683 0 0 0 0 1.367Z"></path><path class="ic-a-transporters__svg__ic_a_transporters" fill="#000" d="M9.342 11.793a.793.793 0 1 1 0-1.587.793.793 0 0 1 0 1.587Zm0-1.366a.573.573 0 1 0 0 1.145.573.573 0 0 0 0-1.145Z"></path><path class="ic-a-transporters__svg__ic_a_transporters" fill="#FBDC00" d="M5.097 11.681a.683.683 0 1 0 0-1.366.683.683 0 0 0 0 1.367Z"></path><path class="ic-a-transporters__svg__ic_a_transporters" fill="#000" d="M5.097 11.793a.793.793 0 1 1 0-1.587.793.793 0 0 1 0 1.587Zm0-1.366a.573.573 0 1 0 0 1.145.573.573 0 0 0 0-1.145Z"></path><path class="ic-a-transporters__svg__ic_a_transporters" fill="#FFFFFF" d="M9.342 11.259a.26.26 0 1 0 0-.521.26.26 0 0 0 0 .521Z"></path><path class="ic-a-transporters__svg__ic_a_transporters" fill="#000" d="M9.342 11.37a.371.371 0 1 1 0-.743.371.371 0 0 1 0 .743Zm0-.521a.15.15 0 1 0 0 .3.15.15 0 0 0 0-.3Z"></path><path class="ic-a-transporters__svg__ic_a_transporters" fill="#FFFFFF" d="M5.097 11.259a.26.26 0 1 0 0-.521.26.26 0 0 0 0 .521Z"></path><path class="ic-a-transporters__svg__ic_a_transporters" fill="#000" d="M5.097 11.37a.372.372 0 1 1 0-.743.372.372 0 0 1 0 .743Zm0-.521a.15.15 0 1 0 0 .3.15.15 0 0 0 0-.3Z"></path><path class="ic-a-transporters__svg__ic_a_transporters" fill="#FBDC00" d="M10.918 2.402c0 .717-.975 1.869-.975 1.869s-.975-1.075-.975-1.869a.982.982 0 1 1 1.95 0Z"></path><path class="ic-a-transporters__svg__ic_a_transporters" fill="#000" d="M9.943 4.356a.085.085 0 0 1-.063-.028c-.041-.045-.997-1.109-.997-1.926a1.067 1.067 0 1 1 2.12 0c0 .74-.954 1.875-.994 1.923a.086.086 0 0 1-.064.03l-.002.001Zm0-2.977a.969.969 0 0 0-.889 1.023c0 .635.672 1.481.887 1.736.213-.267.891-1.162.891-1.736a.969.969 0 0 0-.889-1.023Z"></path><path class="ic-a-transporters__svg__ic_a_transporters" fill="#FFFFFF" d="M9.943 2.765a.43.43 0 1 0 0-.86.43.43 0 0 0 0 .86Z"></path><path class="ic-a-transporters__svg__ic_a_transporters" fill="#000" d="M9.943 2.859a.523.523 0 1 1 0-1.047.523.523 0 0 1 0 1.047Zm0-.859a.336.336 0 1 0 0 .67.336.336 0 0 0 0-.669V2ZM5.497 3.304H5.28v-.741a.412.412 0 0 1 .411-.412h3.004v.216H5.691a.193.193 0 0 0-.193.193v.744Z"></path><path class="ic-a-transporters__svg__ic_a_transporters" fill="#FFFFFF" d="M6.363 4.723c0 .717-.975 1.868-.975 1.868s-.974-1.075-.974-1.868a.983.983 0 1 1 1.95 0h-.001Z"></path><path class="ic-a-transporters__svg__ic_a_transporters" fill="#000" d="m5.391 6.733-.072-.079c-.04-.045-1-1.111-1-1.931a1.076 1.076 0 1 1 2.137 0c0 .742-.956 1.88-.996 1.929l-.069.081ZM5.39 3.708a.96.96 0 0 0-.88 1.015c0 .625.656 1.458.877 1.721.22-.276.883-1.156.883-1.721a.96.96 0 0 0-.88-1.015Z"></path><path class="ic-a-transporters__svg__ic_a_transporters" fill="#FFFFFF" d="M5.389 5.085a.43.43 0 1 0 0-.859.43.43 0 0 0 0 .859Z"></path><path class="ic-a-transporters__svg__ic_a_transporters" fill="#000" d="M5.389 5.18a.524.524 0 1 1 0-1.048.524.524 0 0 1 0 1.047Zm0-.86a.336.336 0 1 0 0 .673.336.336 0 0 0 0-.673Z"></path></svg>