<svg xmlns:xlink="http://www.w3.org/1999/xlink" xmlns="http://www.w3.org/2000/svg" fill="none" viewBox="0 0 14 14" width="28" height="28" role="img"><path class="ic-a-blog_svg__ic_a_blog" fill="#FFFFFF" d="M11.066 10.079V4.524H3v5.555h8.066Z"></path><path class="ic-a-blog_svg__ic_a_blog" fill="#231F20" d="M11.066 10.209H2.999a.13.13 0 0 1-.13-.13V4.524a.13.13 0 0 1 .13-.13h8.067a.13.13 0 0 1 .13.13v5.555a.13.13 0 0 1-.13.13Zm-7.937-.26h7.808V4.654H3.129v5.295Z"></path><path class="ic-a-blog_svg__ic_a_blog" fill="#FBDC00" d="M10.156 9.17V3.613H2.09V9.17h8.066Z"></path><path class="ic-a-blog_svg__ic_a_blog" fill="#231F20" d="M10.156 9.299H2.09a.13.13 0 0 1-.13-.13V3.615a.13.13 0 0 1 .13-.13h8.066a.13.13 0 0 1 .13.13v5.554a.13.13 0 0 1-.13.13Zm-7.937-.26h7.807V3.745H2.219V9.04Z"></path><path class="ic-a-blog_svg__ic_a_blog" fill="#FFFFFF" d="M9.222 5.355v-.783H3.13v.783h6.09Z"></path><path class="ic-a-blog_svg__ic_a_blog" fill="#231F20" d="M9.222 5.485H3.13a.13.13 0 0 1-.13-.13v-.782a.13.13 0 0 1 .13-.13h6.092a.13.13 0 0 1 .129.13v.782a.13.13 0 0 1-.13.13Zm-5.962-.26h5.831v-.523H3.26v.523Z"></path><path class="ic-a-blog_svg__ic_a_blog" fill="#FFFFFF" d="M5.303 8.323V6.028H3.13v2.295h2.173Z"></path><path class="ic-a-blog_svg__ic_a_blog" fill="#231F20" d="M5.303 8.453H3.13a.13.13 0 0 1-.13-.13V6.028a.13.13 0 0 1 .13-.129h2.173a.13.13 0 0 1 .13.13v2.294a.13.13 0 0 1-.13.13Zm-2.043-.26h1.914V6.159H3.26v2.035Z"></path><path class="ic-a-blog_svg__ic_a_blog" fill="#FBDC00" d="M7.25 6.842v-.813H5.946v.813H7.25Z"></path><path class="ic-a-blog_svg__ic_a_blog" fill="#231F20" d="M7.25 6.972H5.947a.13.13 0 0 1-.13-.13v-.814a.13.13 0 0 1 .13-.13H7.25a.13.13 0 0 1 .13.13v.814a.13.13 0 0 1-.13.13Zm-1.174-.26H7.12v-.554H6.076v.554Z"></path><path class="ic-a-blog_svg__ic_a_blog" fill="#FBDC00" d="M9.222 6.842v-.813H7.918v.813h1.304Z"></path><path class="ic-a-blog_svg__ic_a_blog" fill="#231F20" d="M9.222 6.972H7.918a.13.13 0 0 1-.13-.13v-.814a.13.13 0 0 1 .13-.13h1.304a.13.13 0 0 1 .13.13v.814a.13.13 0 0 1-.13.13Zm-1.175-.26h1.045v-.554H8.047v.554Zm1.175 1.741H5.947a.13.13 0 0 1-.13-.13v-.814a.13.13 0 0 1 .13-.13h3.275a.13.13 0 0 1 .13.13v.813a.13.13 0 0 1-.13.131Zm-3.146-.26h3.015V7.64H6.076v.554Z"></path><path class="ic-a-blog_svg__ic_a_blog" fill="#FBDC00" d="m11.808 11.092-.63-.676a.304.304 0 0 1 .175-.508l.48-.095a.092.092 0 0 0 .077-.077.092.092 0 0 0-.052-.097L8.547 7.93a.097.097 0 0 0-.141.11l1.22 3.457a.1.1 0 0 0 .09.067.1.1 0 0 0 .095-.059l.296-.659a.338.338 0 0 1 .55-.08l.684.733a.332.332 0 0 0 .456.024.295.295 0 0 0 .011-.43Z"></path><path class="ic-a-blog_svg__ic_a_blog" fill="#231F20" d="M11.582 11.73a.458.458 0 0 1-.335-.144l-.684-.734a.212.212 0 0 0-.19-.062.19.19 0 0 0-.146.109l-.296.659a.23.23 0 0 1-.427-.019l-1.22-3.457a.219.219 0 0 1 .063-.238.23.23 0 0 1 .26-.03l3.312 1.71a.222.222 0 0 1-.061.416l-.479.095a.188.188 0 0 0-.146.124.167.167 0 0 0 .04.169l.63.676a.447.447 0 0 1 .12.324.411.411 0 0 1-.14.29.456.456 0 0 1-.3.112Zm-1.172-1.2a.468.468 0 0 1 .342.15l.685.734a.202.202 0 0 0 .275.014.15.15 0 0 0 .05-.109.184.184 0 0 0-.05-.134l-.63-.676a.424.424 0 0 1-.098-.425.443.443 0 0 1 .344-.3l.376-.074-3.146-1.626 1.165 3.3.265-.59a.45.45 0 0 1 .341-.258.486.486 0 0 1 .081-.01v.004Z"></path></svg>