<svg xmlns:xlink="http://www.w3.org/1999/xlink" xmlns="http://www.w3.org/2000/svg" fill="none" viewBox="0 0 14 14" width="28" height="28" role="img"><path class="ic-a-events_svg__ic_a_events" fill="#FBDC00" d="M11.434 10.598V4.491H2.566v6.107h8.868Z"></path><path class="ic-a-events_svg__ic_a_events" fill="#231F20" d="M11.434 10.728H2.565a.129.129 0 0 1-.13-.13V4.491a.13.13 0 0 1 .13-.13h8.869a.13.13 0 0 1 .13.13v6.107a.13.13 0 0 1-.13.13Zm-8.738-.26h8.609v-5.85h-8.61v5.85Z"></path><path class="ic-a-events_svg__ic_a_events" fill="#FFFFFF" d="m7 6.621.405 1.245h1.31l-1.06.77.405 1.246L7 9.112l-1.059.77.405-1.245-1.06-.77h1.31L7 6.62Z"></path><path class="ic-a-events_svg__ic_a_events" fill="#231F20" d="M8.06 10.012a.129.129 0 0 1-.076-.025L7 9.273l-.983.714a.13.13 0 0 1-.2-.145l.375-1.156-.984-.715a.13.13 0 0 1 .077-.234H6.5l.376-1.156a.13.13 0 0 1 .247 0l.376 1.156h1.215a.13.13 0 0 1 .077.234l-.984.715.375 1.156a.13.13 0 0 1-.122.17ZM5.685 7.996l.737.535a.13.13 0 0 1 .047.146l-.282.865.737-.535a.13.13 0 0 1 .15 0l.736.535-.281-.866a.13.13 0 0 1 .047-.145l.737-.535h-.911a.13.13 0 0 1-.123-.09l-.282-.865-.281.865a.13.13 0 0 1-.124.09h-.907Zm5.749-1.866H2.566a.13.13 0 1 1 0-.26h8.868a.13.13 0 1 1 0 .26Z"></path><path class="ic-a-events_svg__ic_a_events" fill="#FFFFFF" d="M5.762 3.401H4.44v1.842h1.322V3.401Z"></path><path class="ic-a-events_svg__ic_a_events" fill="#231F20" d="M5.762 5.373h-1.32a.13.13 0 0 1-.13-.13V3.402a.13.13 0 0 1 .13-.13h1.322a.13.13 0 0 1 .13.13v1.841a.13.13 0 0 1-.132.13Zm-1.193-.26h1.063V3.53H4.569v1.584Z"></path><path class="ic-a-events_svg__ic_a_events" fill="#FFFFFF" d="M9.56 3.401H8.238v1.842H9.56V3.401Z"></path><path class="ic-a-events_svg__ic_a_events" fill="#231F20" d="M9.56 5.373H8.236a.13.13 0 0 1-.13-.13V3.402a.13.13 0 0 1 .13-.13h1.322a.13.13 0 0 1 .13.13v1.841a.13.13 0 0 1-.13.13Zm-1.193-.26H9.43V3.53H8.367v1.584Z"></path></svg>