<svg xmlns:xlink="http://www.w3.org/1999/xlink" xmlns="http://www.w3.org/2000/svg" fill="none" viewBox="0 0 14 14" width="24" height="24" role="img"><path class="ic-a-transparency__svg__ic_a_transparency" fill="#000" d="M5.462 1c.116.015.232.028.347.046 1.342.212 2.36.906 3.052 2.07.395.665.572 1.393.56 2.16a4.118 4.118 0 0 1-.652 2.182l-.094.154.313.352c.353.397.705.795 1.063 1.189a.23.23 0 0 0 .156.07c.193 0 .35.07.484.202.676.668 1.355 1.332 2.023 2.008.121.123.192.296.286.445v.422c-.073.195-.17.373-.339.507a.883.883 0 0 1-1.106-.003 1.967 1.967 0 0 1-.148-.133c-.653-.651-1.303-1.306-1.96-1.953-.16-.156-.246-.327-.234-.55a.193.193 0 0 0-.04-.126c-.441-.501-.886-1-1.33-1.5-.007-.008-.018-.013-.031-.023-.132.09-.26.187-.398.266-1.552.894-3.098.873-4.588-.114C1.8 7.992 1.212 7.001 1.044 5.78c-.17-1.24.157-2.35.964-3.3.692-.816 1.585-1.29 2.649-1.435.096-.013.192-.03.288-.044h.517ZM1.426 5.245c.008 2.09 1.715 3.79 3.799 3.78 2.1-.01 3.794-1.705 3.786-3.79a3.78 3.78 0 0 0-3.796-3.78 3.789 3.789 0 0 0-3.789 3.79Zm8.155 4.97c.05.084.083.173.143.234.405.413.816.82 1.226 1.228.257.256.512.515.772.768a.512.512 0 0 0 .56.133c.2-.07.313-.214.331-.425.015-.172-.058-.31-.178-.428l-1.998-1.996c-.017-.016-.033-.033-.051-.048a.282.282 0 0 0-.37.02c-.11.11-.224.217-.33.332-.04.045-.062.106-.105.183Zm.151-.79L8.416 7.954l-.298.32 1.295 1.451.32-.298h-.001Z"></path><path class="ic-a-transparency__svg__ic_a_transparency" fill="#000" d="M10.008 11.619v.392c-.042.002-.08.006-.118.006H3.092c-.523 0-.898-.268-1.028-.738a1.076 1.076 0 0 1-.035-.278c-.003-.633-.001-1.266 0-1.899 0-.019.002-.038.005-.067h.393v1.915c0 .441.23.67.675.67h6.906Z"></path><path class="ic-a-transparency__svg__ic_a_transparency" fill="#000" d="M9.003 11.012h-6.17v-.385h6.17v.385ZM8.208 9.83v.381H2.833v-.38h5.375Zm3.797-.21h-.394v-.155c0-2.105 0-4.211-.003-6.317a.907.907 0 0 0-.054-.343c-.102-.246-.305-.354-.569-.354H8.823v-.39c.027-.002.054-.008.08-.008.692 0 1.385-.002 2.077 0 .42.002.746.18.924.565.066.144.101.315.101.474.007 2.15.005 4.298.005 6.447 0 .023-.003.046-.005.081Z"></path><path class="ic-a-transparency__svg__ic_a_transparency" fill="#000" d="M11.206 3.056v.377H9.42v-.377h1.786Zm-1.389.994h1.385v.387H9.817V4.05Zm0 2.38v-.383h1.386v.383H9.817Zm0-1.384h1.387v.383H9.817v-.383Zm0 2.377V7.04h1.388v.383H9.817Zm1.39.618v.378h-1.185v-.378h1.185Z"></path><path class="ic-a-transparency__svg__ic_a_transparency" fill="#FEDE00" d="M1.426 5.245a3.789 3.789 0 0 1 3.79-3.79 3.78 3.78 0 0 1 3.795 3.78c.008 2.085-1.686 3.78-3.786 3.79-2.084.01-3.79-1.69-3.799-3.78Zm.4-.004a3.391 3.391 0 0 0 3.39 3.384 3.386 3.386 0 1 0 .008-6.774c-1.861-.011-3.4 1.524-3.399 3.39Zm7.755 4.975c.043-.076.065-.138.105-.183.106-.115.22-.222.33-.332a.283.283 0 0 1 .37-.02c.018.014.034.032.05.048.667.665 1.332 1.331 2 1.996.118.119.192.256.177.428a.465.465 0 0 1-.332.425.512.512 0 0 1-.56-.133c-.26-.253-.514-.512-.772-.768-.409-.409-.82-.815-1.225-1.228-.06-.06-.093-.15-.143-.233Zm.151-.79-.319.298-1.295-1.45.298-.321 1.316 1.473Z"></path><path class="ic-a-transparency__svg__ic_a_transparency" fill="#000" d="M1.825 5.241c0-1.866 1.538-3.401 3.4-3.39a3.387 3.387 0 1 1-.009 6.774 3.391 3.391 0 0 1-3.39-3.384Zm.4.003a2.991 2.991 0 0 0 3 2.983 2.983 2.983 0 0 0 2.987-2.991C8.207 3.58 6.858 2.237 5.216 2.25c-1.66.012-2.997 1.35-2.991 2.995Z"></path><path class="ic-a-transparency__svg__ic_a_transparency" fill="#FEDE00" d="M2.225 5.244C2.219 3.6 3.555 2.262 5.215 2.25c1.643-.012 2.992 1.332 2.997 2.986a2.983 2.983 0 0 1-2.988 2.991 2.99 2.99 0 0 1-3-2.982Zm5.477-.016c-.083-.077-.165-.148-.243-.225a3.112 3.112 0 0 0-2.107-.924c-.92-.04-1.716.278-2.382.912-.074.07-.13.16-.19.237 1.352 1.663 3.798 1.46 4.922 0ZM6.61 3.257H3.827v.382H6.61v-.382Zm0 3.585H3.83v.386h2.78v-.386Z"></path><path class="ic-a-transparency__svg__ic_a_transparency" fill="#000" d="M7.702 5.228c-1.124 1.46-3.57 1.663-4.922 0 .06-.076.116-.166.19-.237.666-.634 1.462-.952 2.382-.912a3.112 3.112 0 0 1 2.107.924c.078.077.16.148.243.225Zm-2.159-.733c.312.173.489.408.483.753-.007.341-.186.576-.511.745a2.898 2.898 0 0 0 1.633-.749c-.36-.382-1.009-.687-1.605-.749Zm-.657.006c-.608.07-1.136.32-1.59.732.332.38 1.124.74 1.542.728-.667-.425-.478-1.215.048-1.46Zm-.062.737a.4.4 0 0 0 .392.401.408.408 0 0 0 .404-.403.402.402 0 0 0-.4-.392.394.394 0 0 0-.396.395ZM6.61 3.257v.382H3.827v-.382H6.61Zm0 3.585v.386H3.83v-.386h2.78Z"></path><path class="ic-a-transparency__svg__ic_a_transparency" fill="#FFFFFF" d="M5.543 4.495c.596.061 1.246.367 1.605.749a2.896 2.896 0 0 1-1.633.749c.325-.17.504-.404.51-.745.007-.345-.17-.58-.482-.753Zm-.657.006c-.526.245-.716 1.035-.048 1.46-.418.012-1.21-.348-1.543-.728a2.79 2.79 0 0 1 1.591-.732Z"></path><path class="ic-a-transparency__svg__ic_a_transparency" fill="#FFFFFF" d="M4.824 5.238a.395.395 0 0 1 .395-.395c.216 0 .398.177.4.393a.408.408 0 0 1-.404.403.4.4 0 0 1-.391-.401Z"></path></svg>