<svg xmlns:xlink="http://www.w3.org/1999/xlink" xmlns="http://www.w3.org/2000/svg" fill="none" viewBox="0 0 15 15" width="28" height="28" role="img"><path class="ic-a-incoterms__svg__ic_a_incoterms" fill="#000" d="M11.08 3.975v8.007c0 .715-.447 1.353-1.092 1.546a1.716 1.716 0 0 1-.482.072c-2.24.004-4.478.004-6.717.002-.863 0-1.556-.638-1.588-1.45-.009-.224.04-.276.26-.276h1.375v-.204L2.833 3.89c0-.678.282-1.184.895-1.493.221-.111.46-.147.705-.147 2.59 0 5.178-.002 7.767 0 .822 0 1.441.514 1.583 1.3a.985.985 0 0 1 .014.125c.013.255-.03.3-.291.3H11.08Zm-7.885 7.901h4.856c.262 0 .287.023.309.28a1.174 1.174 0 0 0 1.715.951c.444-.231.643-.615.643-1.11 0-2.72.001-5.44-.002-8.16 0-.443.148-.82.456-1.136.021-.021.04-.046.078-.09H4.47c-.783 0-1.275.492-1.275 1.277v7.988Zm-1.55.367c.004.042.005.078.013.113.135.54.57.885 1.127.885 1.875.002 3.748 0 5.623 0 .034 0 .069-.005.131-.009a1.602 1.602 0 0 1-.54-.99H1.644Zm11.713-8.635c-.075-.59-.598-1.033-1.157-.995-.575.04-1.098.515-1.086.995h2.243Z"></path><path class="ic-a-incoterms__svg__ic_a_incoterms" fill="#000" d="M13.204 9.33c0 1.09.003 2.182-.004 3.273a.591.591 0 0 1-.096.292c-.104.165-.228.318-.348.473-.111.144-.229.143-.341-.003-.131-.17-.263-.339-.385-.515a.386.386 0 0 1-.066-.206c-.006-2.214-.009-4.429-.01-6.643 0-.165.064-.229.228-.23.252-.002.503 0 .755 0 .202.001.256.054.256.258V9.33h.011Zm-.607 3.662c.077-.168.248-.257.248-.464-.006-2.08-.008-4.161-.01-6.242 0-.05-.005-.098-.008-.147h-.513v.172c.002 1.987.009 3.975 0 5.962-.001.27.053.491.243.679l.04.04Zm-.024-7.871h.392c.109.001.18.052.188.164.008.12-.063.189-.175.192-.266.007-.532.007-.797 0-.122-.003-.19-.091-.18-.205.011-.118.088-.153.195-.152.125.002.252 0 .377 0v.001Z"></path><path class="ic-a-incoterms__svg__ic_a_incoterms" fill="#FEDE00" d="M3.195 11.876V3.887c0-.784.492-1.277 1.275-1.277h6.78c-.038.045-.057.07-.078.091a1.557 1.557 0 0 0-.456 1.136c.003 2.72.001 5.44.002 8.16 0 .495-.199.879-.643 1.11a1.174 1.174 0 0 1-1.715-.95c-.022-.258-.047-.281-.308-.281H3.196Zm.951-5.739c0 .178-.003.355.001.532.011.43.317.738.747.744.344.006.69.003 1.035 0a.736.736 0 0 0 .54-.223c.24-.243.231-.547.197-.852a.139.139 0 0 0-.188-.118.268.268 0 0 0-.15.148c-.027.08-.008.175-.01.264-.004.278-.146.42-.425.421a89.46 89.46 0 0 1-.951 0c-.29 0-.432-.14-.433-.428a92.428 92.428 0 0 1 0-.965c.001-.293.136-.429.426-.43.299-.002.597 0 .895-.002.153 0 .229-.067.226-.187-.002-.115-.073-.173-.221-.174-.312-.001-.625-.003-.937 0-.44.006-.742.31-.75.752-.004.173 0 .346 0 .518h-.002Zm0 3.358v.475c.003.492.302.795.792.799.308.002.615-.001.923 0 .646.004.894-.466.809-1.065-.014-.098-.087-.14-.183-.136-.097.005-.158.056-.165.155-.006.083-.003.168-.004.252-.003.29-.14.43-.429.432-.317.002-.634.002-.95 0-.29-.001-.43-.14-.43-.43a92.081 92.081 0 0 1 0-.965c0-.29.136-.426.428-.428.298-.003.597 0 .895-.002.154-.001.228-.068.223-.188-.004-.115-.073-.17-.224-.171-.312-.002-.624-.005-.937 0-.44.007-.74.31-.748.754-.003.172 0 .345 0 .518Zm1.358.1c-.127-.136-.229-.251-.337-.36-.1-.1-.203-.105-.282-.024-.075.077-.065.184.032.282.134.136.27.27.406.405.147.146.223.146.374-.004L6.856 8.74c.03-.03.06-.06.083-.094.052-.082.045-.176-.033-.223-.056-.034-.145-.029-.215-.016-.042.008-.077.063-.113.1L5.504 9.595Zm.006-3.353c-.13-.138-.233-.252-.342-.36-.102-.103-.201-.109-.281-.028-.077.077-.067.185.029.282.134.136.27.27.406.405.15.148.224.148.374 0l1.17-1.165c.022-.023.047-.046.065-.072.06-.085.051-.17-.022-.24-.07-.067-.151-.067-.228-.009-.034.025-.063.057-.092.087l-1.079 1.1Zm2.982-.645H7.458c-.15 0-.234.067-.233.18.002.106.086.178.223.179h2.095c.14 0 .22-.068.224-.177.003-.116-.077-.182-.228-.183H8.492Zm.015.727H7.446c-.138.002-.221.071-.22.18 0 .106.084.18.22.18h2.096c.147 0 .23-.074.225-.19-.005-.11-.08-.17-.226-.17H8.507Zm.002.73c-.354 0-.708-.005-1.061.004a.277.277 0 0 0-.195.096c-.086.124.024.26.206.26.689.002 1.378.001 2.067 0 .16 0 .245-.069.24-.188-.003-.115-.08-.172-.237-.172-.34-.001-.68 0-1.02 0Zm-.015 3.354H7.458c-.15.001-.22.057-.224.172-.003.122.07.188.225.188.69.002 1.38.002 2.071 0 .153 0 .233-.067.233-.182 0-.117-.077-.178-.234-.178H8.494Zm.013-1.097h.588c.149 0 .298.002.447 0 .143-.004.22-.068.221-.18.002-.112-.074-.176-.216-.18h-2.07c-.037 0-.087-.01-.109.01-.051.045-.121.103-.124.16-.003.056.057.127.108.17.032.028.098.02.149.02h1.006Zm-.003.369H7.469c-.156 0-.234.06-.234.177 0 .115.08.183.232.183.69.002 1.38.002 2.07 0 .15 0 .23-.072.226-.188-.004-.114-.076-.172-.224-.172H8.504Zm.32-4.813c-.247 0-.494.002-.741 0-.12 0-.2.048-.214.172-.012.107.078.189.212.19.49.002.98.002 1.47 0 .137-.001.22-.077.21-.189-.01-.125-.088-.174-.21-.173-.242.002-.484 0-.727 0ZM8.81 8.58c.242 0 .484.002.726 0 .152-.001.23-.067.228-.183-.002-.111-.077-.175-.222-.176H8.089c-.144.001-.219.065-.221.177-.002.116.076.18.229.182.237.002.474 0 .712 0Z"></path><path class="ic-a-incoterms__svg__ic_a_incoterms" fill="#FEDE00" d="M1.645 12.242h6.353c.061.383.227.714.541.99-.062.005-.097.01-.131.01H2.785a1.127 1.127 0 0 1-1.127-.885c-.008-.035-.009-.072-.013-.114Z"></path><path class="ic-a-incoterms__svg__ic_a_incoterms" fill="#FFFFFF" d="M13.358 3.608h-2.243c-.011-.48.51-.956 1.086-.995.56-.038 1.082.406 1.157.995Z"></path><path class="ic-a-incoterms__svg__ic_a_incoterms" fill="#FEDE00" d="m12.597 12.992-.04-.04c-.19-.188-.245-.41-.243-.68.01-1.986.002-3.974 0-5.961v-.172h.514c.002.049.006.098.006.147.003 2.08.005 4.162.011 6.242 0 .206-.17.296-.248.464Z"></path><path class="ic-a-incoterms__svg__ic_a_incoterms" fill="#000" d="M4.146 6.137c0-.172-.003-.345 0-.517.01-.442.312-.746.751-.752.312-.004.625-.002.937 0 .148 0 .219.059.222.174.002.12-.073.186-.226.187-.299.002-.597-.001-.896 0-.29.003-.425.138-.426.432-.001.321-.002.643 0 .965.002.287.143.427.433.428h.95c.28-.002.422-.144.427-.422.001-.088-.018-.183.009-.263a.268.268 0 0 1 .15-.149.139.139 0 0 1 .188.119c.035.305.043.608-.197.852a.734.734 0 0 1-.54.223c-.345.002-.69.005-1.035 0-.43-.007-.736-.314-.747-.745-.004-.177 0-.354 0-.531Zm0 3.358c0-.172-.002-.345.001-.518.008-.443.308-.747.748-.754.312-.004.625-.002.937 0 .15 0 .22.056.224.17.004.122-.07.188-.223.19-.299.002-.597-.001-.895 0-.293.003-.428.139-.43.43v.964c.002.29.141.429.43.43.318.002.635.002.952 0 .288-.002.426-.142.429-.432.001-.084-.003-.168.003-.252.007-.098.069-.15.166-.154.096-.005.169.038.182.135.086.6-.162 1.07-.808 1.066-.308-.002-.616.001-.923-.001-.49-.004-.79-.307-.792-.799v-.475Z"></path><path class="ic-a-incoterms__svg__ic_a_incoterms" fill="#000" d="m5.504 9.595 1.074-1.088c.036-.037.071-.092.114-.1.07-.013.159-.018.214.016.078.047.085.14.033.223-.022.035-.054.064-.083.094L5.697 9.894c-.15.15-.226.15-.374.004-.136-.135-.272-.269-.406-.405-.097-.099-.107-.204-.031-.282.078-.08.181-.075.28.024.11.109.211.224.338.36Zm.006-3.352 1.08-1.101a.824.824 0 0 1 .09-.087c.078-.057.159-.058.229.01.073.07.081.154.022.24-.018.026-.043.048-.066.071l-1.17 1.165c-.149.149-.224.148-.373 0-.136-.134-.272-.268-.406-.404-.097-.098-.106-.206-.03-.283.08-.08.18-.074.282.028.109.108.211.222.342.36Zm2.981-.646H9.54c.15 0 .23.066.227.182-.003.11-.083.177-.224.177H7.447c-.136 0-.22-.073-.222-.18-.002-.111.083-.179.233-.179H8.49Zm.016.728H9.54c.146 0 .221.06.226.17.005.116-.078.19-.225.19H7.446c-.137 0-.221-.074-.221-.18 0-.109.082-.179.22-.18h1.061Zm.002.729h1.02c.156 0 .234.057.238.172.003.119-.082.188-.241.188H7.458c-.181 0-.292-.136-.206-.26a.276.276 0 0 1 .196-.096c.353-.01.707-.004 1.06-.004Zm-.016 3.354H9.53c.157.001.233.062.233.178 0 .115-.08.182-.232.183H7.458c-.154 0-.228-.067-.224-.188.003-.115.073-.172.223-.172.345-.002.69 0 1.036 0Zm.014-1.097H7.5c-.051 0-.117.007-.149-.02-.05-.043-.11-.114-.108-.17.003-.057.073-.116.124-.16.023-.02.072-.01.11-.01h2.069c.142.004.218.067.216.18-.001.112-.077.176-.22.179-.15.003-.3 0-.448 0h-.588v.001Zm-.004.369h1.035c.148.001.22.06.224.172.004.116-.076.189-.226.189-.69.002-1.38.002-2.07 0-.152 0-.232-.068-.232-.184 0-.116.078-.176.234-.176h1.035Zm.321-4.813c.242 0 .485.002.727 0 .122-.001.2.047.21.173.01.111-.073.187-.211.188-.49.003-.98.003-1.47 0-.134 0-.223-.082-.211-.19.013-.123.093-.172.213-.171.247.002.494 0 .742 0ZM8.808 8.58h-.712c-.153-.002-.231-.067-.229-.183.002-.112.077-.176.221-.177H9.54c.145.001.22.065.222.176.003.117-.076.182-.228.183-.242.002-.484 0-.726 0Z"></path></svg>