<svg xmlns:xlink="http://www.w3.org/1999/xlink" xmlns="http://www.w3.org/2000/svg" fill="none" viewBox="0 0 15 15" width="28" height="28" role="img"><path class="ic-a-discover_rates_svg__ic_a_discover_rates" fill="#FEDE00" d="M6.325 10.709A4.387 4.387 0 0 0 10.71 6.32a4.386 4.386 0 0 0-4.385-4.388A4.386 4.386 0 0 0 1.941 6.32a4.386 4.386 0 0 0 4.384 4.389Z"></path><path class="ic-a-discover_rates_svg__ic_a_discover_rates" fill="#000" d="m10.377 9.46.565.562c.112-.106.203-.056.302.044.759.765 1.522 1.526 2.283 2.288.272.272.35.6.193.903-.166.32-.49.592-.888.536a.738.738 0 0 1-.432-.212c-.791-.791-1.582-1.584-2.374-2.374-.092-.091-.079-.175-.008-.256l-.57-.565c-1.27.935-2.69 1.273-4.248.93-1.243-.272-2.25-.938-3-1.966C.65 7.23.928 4.371 2.845 2.561 4.68.831 7.573.741 9.554 2.347c2.053 1.664 2.592 4.805.823 7.114Zm-4.053 1.707c2.663 0 4.832-2.17 4.84-4.84A4.843 4.843 0 0 0 6.322 1.48a4.835 4.835 0 0 0-4.836 4.836 4.844 4.844 0 0 0 4.838 4.85Zm4.777-.85c-.268.266-.526.521-.778.773.76.765 1.525 1.54 2.299 2.307a.5.5 0 0 0 .281.115c.217.025.47-.155.572-.381.086-.193.04-.393-.137-.57-.351-.354-.705-.707-1.057-1.06l-1.18-1.184Zm-.395-.07a967.52 967.52 0 0 1-.514-.515l-.47.467.513.518.472-.47Z"></path><path class="ic-a-discover_rates_svg__ic_a_discover_rates" fill="#FFFFFF" d="M6.324 11.167a4.844 4.844 0 0 1-4.838-4.851A4.835 4.835 0 0 1 6.322 1.48c2.672-.002 4.85 2.178 4.842 4.846-.008 2.672-2.177 4.84-4.84 4.84ZM10.83 6.32a4.508 4.508 0 1 0-9.015 0 4.512 4.512 0 0 0 4.506 4.513c2.481.005 4.509-2.025 4.51-4.513Z"></path><path class="ic-a-discover_rates_svg__ic_a_discover_rates" fill="#FEDE00" d="m11.1 10.317 1.18 1.184 1.058 1.06c.176.177.223.376.136.57-.1.226-.354.406-.571.381a.5.5 0 0 1-.281-.115c-.774-.767-1.54-1.542-2.3-2.307l.778-.773Zm.517 1.184c.045-.043.104-.072.113-.113a.198.198 0 0 0-.037-.155c-.16-.172-.33-.335-.495-.502-.067-.068-.143-.102-.22-.03-.081.077-.05.158.022.229.16.16.319.321.481.48.034.032.08.053.136.09Zm.666.41c0-.118-.207-.337-.291-.326-.044.005-.1.036-.12.073-.019.035-.017.105.006.137a.91.91 0 0 0 .193.194c.032.024.1.025.138.008.038-.016.06-.069.074-.087Z"></path><path class="ic-a-discover_rates_svg__ic_a_discover_rates" fill="#FFFFFF" d="m10.706 10.246-.471.47c-.17-.172-.35-.351-.514-.518l.47-.466.515.514Z"></path><path class="ic-a-discover_rates_svg__ic_a_discover_rates" fill="#000" d="M10.832 6.32c0 2.49-2.028 4.52-4.51 4.514a4.512 4.512 0 0 1-4.506-4.513 4.508 4.508 0 1 1 9.016 0Zm-.282-.002a4.23 4.23 0 0 0-4.23-4.23 4.233 4.233 0 0 0 .005 8.464 4.227 4.227 0 0 0 4.224-4.234Zm1.067 5.182c-.057-.036-.102-.057-.136-.09-.162-.158-.32-.32-.481-.48-.072-.071-.104-.151-.021-.228.076-.072.152-.038.219.03.165.167.334.33.494.5a.196.196 0 0 1 .038.157c-.01.04-.068.07-.113.112Z"></path><path class="ic-a-discover_rates_svg__ic_a_discover_rates" fill="#000" d="M9.66 8.37c-.027.056-.04.096-.063.13-.5.74-1.17 1.258-2.014 1.55-.089.031-.172.032-.21-.07-.039-.106.024-.161.12-.195a3.696 3.696 0 0 0 1.88-1.444c.031-.047.114-.078.174-.08.036-.001.075.07.113.108Zm.617-1.839-.19.93a.4.4 0 0 1-.027.084c-.034.076-.093.108-.173.082-.079-.026-.115-.09-.09-.168.118-.37.173-.748.182-1.135.002-.087.051-.142.144-.138.093.004.129.067.133.151.003.063.001.125.001.188l.02.006Zm-3.729 3.726c-.089 0-.16.005-.23-.001-.081-.008-.145-.058-.125-.14.012-.051.072-.123.119-.13.235-.034.473-.051.71-.071.084-.007.152.042.143.12-.006.054-.064.137-.113.148-.17.04-.346.053-.504.074Zm-.15-6.707c.03.018.064.032.091.054.055.044.074.104.074.173v.387c.143.03.281.051.416.088.248.067.47.19.665.356.087.074.107.173.075.28a.285.285 0 0 1-.237.21.271.271 0 0 1-.218-.058c-.19-.14-.4-.235-.63-.283l-.066-.012v.056l-.001 1.12c0 .043.014.058.053.07.255.071.508.149.738.286.247.147.435.346.505.632.14.569-.074 1.202-.723 1.455a1.956 1.956 0 0 1-.53.118c-.012 0-.024.003-.042.005v.185c0 .076.003.152-.005.227-.012.12-.106.196-.227.191a.214.214 0 0 1-.208-.213c-.003-.125-.002-.25-.003-.374l-.002-.005c-.106-.014-.214-.025-.32-.044a2.02 2.02 0 0 1-.98-.484c-.103-.092-.11-.263-.022-.38.094-.123.245-.156.369-.077.06.039.115.086.174.127.218.15.46.245.72.29.017.003.035.004.06.006v-.058c0-.427-.001-.855.001-1.282 0-.046-.017-.06-.057-.071-.25-.07-.498-.142-.727-.271-.25-.141-.44-.335-.504-.623-.098-.44.014-.819.358-1.117.25-.216.55-.313.875-.345.046-.004.055-.02.054-.063-.002-.09.004-.18-.002-.27-.008-.136.036-.236.168-.286h.108Zm.174 3.127v1.265a.831.831 0 0 0 .544-.248c.215-.243.197-.608-.042-.794-.147-.114-.32-.173-.502-.223Zm-.446-1.965c-.092.022-.18.035-.263.063a.591.591 0 0 0-.357.295c-.086.174-.105.431.137.593a1.5 1.5 0 0 0 .473.192l.01-.005V4.712Z"></path></svg>