<svg xmlns:xlink="http://www.w3.org/1999/xlink" xmlns="http://www.w3.org/2000/svg" fill="none" viewBox="0 0 14 14" width="28" height="28" role="img"><path class="ic-a-news_and_updates_svg__ic_a_news_and_updates" fill="#FFFFFF" d="M2.505 6.79v3.207a.86.86 0 0 0 1.718 0V7.315"></path><path class="ic-a-news_and_updates_svg__ic_a_news_and_updates" fill="#231F20" d="M3.364 11.009a1.013 1.013 0 0 1-1.012-1.012V6.79a.153.153 0 1 1 .306 0v3.207a.707.707 0 1 0 1.413 0V7.315a.153.153 0 0 1 .306 0v2.682a1.013 1.013 0 0 1-1.013 1.012Z"></path><path class="ic-a-news_and_updates_svg__ic_a_news_and_updates" fill="#FBDC00" d="M1.467 5.509v2.088c3.928-.082 7.23 2.537 7.23 2.537V3.297s-3.26 1.945-7.23 2.212Z"></path><path class="ic-a-news_and_updates_svg__ic_a_news_and_updates" fill="#231F20" d="M8.697 3.297s-3.26 1.945-7.23 2.212v2.089l.181-.002c3.848 0 7.05 2.538 7.05 2.538V3.297Zm0-.306a.306.306 0 0 1 .307.306v6.837a.306.306 0 0 1-.495.24 13.435 13.435 0 0 0-4.227-2.09A9.726 9.726 0 0 0 1.65 7.9c-.059 0-.118 0-.175.002a.306.306 0 0 1-.313-.306V5.508a.306.306 0 0 1 .286-.305 15.383 15.383 0 0 0 2.741-.448 18.67 18.67 0 0 0 2.257-.731 16.15 16.15 0 0 0 2.095-.99.307.307 0 0 1 .156-.042V2.99Z"></path><path class="ic-a-news_and_updates_svg__ic_a_news_and_updates" fill="#231F20" d="M2.504 7.943a.153.153 0 0 1-.153-.153V5.242a.153.153 0 0 1 .306 0V7.79a.153.153 0 0 1-.153.153Zm10.181-1h-2.457a.153.153 0 0 1 0-.306h2.457a.153.153 0 0 1 0 .306Zm-2.457-1.549a.152.152 0 0 1-.141-.21.151.151 0 0 1 .033-.05l1.985-1.985a.152.152 0 1 1 .216.216L10.336 5.35a.151.151 0 0 1-.108.044Zm2.138 5.212a.155.155 0 0 1-.108-.045L10.12 8.423a.151.151 0 0 1-.033-.166.151.151 0 0 1 .14-.095.153.153 0 0 1 .109.045l2.137 2.138a.152.152 0 0 1-.023.236.153.153 0 0 1-.085.025Zm-4.679-.919a.153.153 0 0 1-.153-.153V3.75a.153.153 0 1 1 .306 0v5.784a.153.153 0 0 1-.153.152Z"></path></svg>